<mxfile host="app.diagrams.net" modified="2023-11-21T15:18:21.210Z" agent="Mozilla/5.0 (Windows NT 10.0; Win64; x64) AppleWebKit/537.36 (KHTML, like Gecko) Chrome/119.0.0.0 Safari/537.36 Edg/119.0.0.0" etag="Wzl7SbrOqmQag2NEIn8g" version="22.1.3" type="device" pages="2">
  <diagram name="Страница — 1" id="o3sYmgAIau1fM3dsohi6">
    <mxGraphModel dx="2165" dy="1120" grid="1" gridSize="10" guides="1" tooltips="1" connect="1" arrows="1" fold="1" page="1" pageScale="1" pageWidth="3300" pageHeight="2339" math="0" shadow="0">
      <root>
        <mxCell id="0" />
        <mxCell id="1" parent="0" />
        <mxCell id="8sX2BqZw8XOpyFKnuvs1-36" value="" style="shape=image;imageAspect=0;verticalLabelPosition=bottom;verticalAlign=top;image=data:image/png,iVBORw0KGgoAAAANSUhEUgAABDAAAAPBCAYAAAAI/VokAAAAAXNSR0IArs4c6QAACel0RVh0bXhmaWxlACUzQ214ZmlsZSUyMGhvc3QlM0QlMjJhcHAuZGlhZ3JhbXMubmV0JTIyJTIwbW9kaWZpZWQlM0QlMjIyMDIzLTExLTIxVDE1JTNBMTUlM0ExOC44OThaJTIyJTIwYWdlbnQlM0QlMjJNb3ppbGxhJTJGNS4wJTIwKFdpbmRvd3MlMjBOVCUyMDEwLjAlM0IlMjBXaW42NCUzQiUyMHg2NCklMjBBcHBsZVdlYktpdCUyRjUzNy4zNiUyMChLSFRNTCUyQyUyMGxpa2UlMjBHZWNrbyklMjBDaHJvbWUlMkYxMTkuMC4wLjAlMjBTYWZhcmklMkY1MzcuMzYlMjBFZGclMkYxMTkuMC4wLjAlMjIlMjBldGFnJTNEJTIyeTd3bm94SG1rRVY3YjFOalZ4TUclMjIlMjB2ZXJzaW9uJTNEJTIyMjIuMS4zJTIyJTIwdHlwZSUzRCUyMmRldmljZSUyMiUyMHBhZ2VzJTNEJTIyMiUyMiUzRSUzQ2RpYWdyYW0lMjBpZCUzRCUyMlkweTNjS3YtNEEyYUlNSElhMGtpJTIyJTIwbmFtZSUzRCUyMlBhZ2UtMSUyMiUzRTdadFJsNW80RklCJTJGRFklMkZUUXdpZ1BxTGd6T3hXM2VNdzdiNVN5U2luU0Z5TTFkbGZ2eUVFQkpOMmFSdWdPdlVCd3lWQyUyQk81TmNtOXkxZUJrZTdwUGc5MW1oa01VYTRZZW5qVG9hb1lCaHpxa1g1bmtOWmNZdGpISUplczBDbk1aT0F1ZW9uOFJGJTJCcGNlb2hDdEs5VkpCakhKTnJWaFN1Y0pHaEZhcklnVGZHeFh1MEZ4JTJGV243b0kxRWdSUHF5QVdwUiUyQmprR3h5NmREU3olMkZJSEZLMDN4Wk9CenE5c2c2SXlGJTJCdzNRWWlQRlJIME5EaEpNU1o1YVh1YW9EaWpWM0RKZnpmOXl0V3lZU2xLU0pNZkdQa1B2Z1R4Z2I4YmJ4ZDVMVjQyeFlja1JGbDlYWVBqNHlZaTZHa1hyTEtyUjZwZkt0dVFiVXpQQUMyS3olMkJkTiUyQm9KU2drNFZFVyUyRlBQY0piUk5KWFdvVmZ2Yk1LV3R3ODdxRE5CY2N6YktBUHVIQlRJVDBxYWdaY3clMkJ2eTltY0l0TUE1eUpuQTIySlNHdCUyRlBNREd2Z0VsNTNnMlNvYVdZeVo2ayUyQkRPYTRCaW5WQktpbCUyQkFRMHdhUFgzQkMlMkJCZ0lqRTd0Q2JUR3poYllQVDk1OUV0M2ZBMDZBa2Y2V3VSYnNCS2NvSXhVRk1jWG9pQ08xZ2s5WFZGWWlNckhHYVNJRHVVT3Y3Q053akI3akZRN2RmMzFwZ2hib2dlb1FnMkRLelpoT0dwQUR1cXRtZkJRWU9jOCUyQnclMkJMSmJOZlhhTzRISFljNThlQlJna05xeExBamg2VEclMkJ3NFlKSWhPenE4bk45cWxOJTJCUUlyRVowRThwTGEwSlEybiUyRmM4amNoZkVESnN6UmVzRDdYVVNvNFpNTTF5eElxRHV5elVDWE5Wdm9YekY2SWI5ZTcycGtJMkFvc1JGVGhZbU1CQk54SGQlMkZMRGNRQTd3QjRSNyUyRmhtOUdHMFd6U0FlMW9vekNGaWpiJTJCV2k3JTJCOENiJTJCdWNlZXU1biUyQnUxOTlWNzhDRWszS1hDOFYwOVlJQ0pwY2VoJTJCWUZ1MWdteEZJUHUxMzdGWDFTNUZoJTJGdTUyRUZqTmZEMGwzVTUxaU5uVXg2anFTY3NjZ2V5akNHbVRhY1d3UktDRjdLZUFxbzVQdTNUYUJIQlFOTVhXd0trT1luc0ZKeGx3V3dOM3paSHVKYmd5YnU4Q25Cam1YZzg0MjJvd3h1a1Nja3JDcTVFWW1uNWNMUDk4bk45M1ElMkZCaVN1OFZxQkpURk1OVmQlMkJsTSUyRmR1aEtadEpXcU1wUm5aTGI3S1l6Ynk1NjdtM3cxUTJ5YlRGdEJ3MnFnSGE4JTJGajk0OFR4SHhmem00RXFuWURhZ3lyR1N0ZEtFcGhOdk83MlNQWVZ5SFJCc3N2QkUlMkJoOVJUQmRrT3gyeU93cnBPbUFaTWZqcEJqakxEM0g5WllDejV2ZGkybzB2c3Eyb3RRb1FJeVYyR0w1bThGZjJucyUyRiUyQkVXUHR0aHIydSUyQkNwS2FEWXJrN2czQzNaeFR5SFkzZFNhdHVTQlZiVkk1ZTNJbzJJNzlic1hkMUpjRXdOSnZFYnJKbEJDWEJjTGs0VzlIT1pESDN2YjliMmkzJTJGSlJleUd5bGhJSnNnbEtoQTRraXpIU054STBHMUZSdEFYTTZlc28lMkJpRU1VczR0bHZaTktVbXdFdFdIY1BublhiVENIVWUwVXFPb2J6aGV0ZFIyNk5xY2lzbXlTSXRaVmFBNERvVU02ZlolMkJPcmNDZ1ZLYUJKSDdCSGJmSHZZJTJCM2RiSGRRTVM4Mk02eWhDRlNXektKbUFoUlg1UDFIJTJGJTJGMGJHMU1NNiUyRiUyQm55dmJHRkhFUiUyRjd1ZGRPTXJUanBMZkRGWkdocGtxV2R1a1laR0pYYVJtRWJMVTYyYUhGUFBjNk9YODZ5MmFTWGJ6V0pIczFJZVY4cHVKZWZOMG93eVdhNU1rek1yTnglMkZVMnQwb3BMaGRVd1RXeFdnQVJWT0VzaHljSDBqcm9LZm5QeVd3YTVYJTJGZGtEdlB3JTNEJTNEJTNDJTJGZGlhZ3JhbSUzRSUzQ2RpYWdyYW0lMjBpZCUzRCUyMnN0bWRoSGdsZV9zTDRIYWpKQmpIJTIyJTIwbmFtZSUzRCUyMiVEMCVBMSVEMSU4MiVEMSU4MCVEMCVCMCVEMCVCRCVEMCVCOCVEMSU4NiVEMCVCMCUyMCVFMiU4MCU5NCUyMDIlMjIlM0VuWkt4RG9Jd0VJYWZwbnZ0RWFLckZYVnhZbkJ1YUlVbWhTT2xCdlRwQlF0aXcwQTBhZExrJTJCNyUyRmNYUzhsd012dVpFVmRYRkFxUXhpVkhZRURZV3dUczZpJTJGQnZMd1pCdFJEM0tyNVNqTklOVlBOY0pKdTJ1cG1rQjBpTWJwT29RWlZwWEtYTUNFdGRpRzJnMU4yTFVXdVZxQU5CTm1TYTlhdXNKVEFFcm40S3gwWG95dCUyQjJqbmsxSk05cWcyaFpEWWZpRklDSXNKZzA0UTJKT0JoUWU0UlhTcjJpU1hIVmRtMlA2MFdOJTJGMyUyQkglMkJCeiUyQk90cXR4dk5ZSDMxc3I0YnlmNE9aQzhBQSUzRCUzRCUzQyUyRmRpYWdyYW0lM0UlM0MlMkZteGZpbGUlM0XhnhCKAAAgAElEQVR4XuzdXaw1VX0/8PHm34sSIN6IAWuCpjWmxRdiUp8Qm5Rg4x1KsfRFgtSApWDaUA1BsRF8iy1pgxSRVrSIDSlFSXvTSL1oojSpaaulJdYEUqMETQyNKL3oDf/8tl2768wzs/de+5zzOzN7f/YND+esPWvNZ+2Zs+c7a9Z6Qdd1z3deBAgQIECAAAECBAgQIECAAIHpCrzgBRFgPP+8DGO6fTTcshe84AXRcXNrtvYSILCHAnG+yng5J2Yoq2NXBHyP2JWetB9ZAo6ZLGn1EBi//u26ToAx1w+Ik+hce067CeyfgABj//rcHk9fwPeI6feRFk5LwDEzrf7Qmv0T+N/vkwKMuXa9k+hce067CeyfgABj//rcHk9fwPeI6feRFk5LwDEzrf7Qmv0TEGDMvM+dRGfegZpPYI8EBBh71Nl2dTYCvkfMpqs0dCICjpmJdIRm7K2AAGPmXe8kOvMO1HwCeyQgwNijzrarsxHwPWI2XaWhExHoHzOf//znu8suu2zZuo997GPdu9/97gOtXVXm29/+9uL9F154YfeJT3xi+b4/+IM/6J588snuox/9aHfVVVd1Dz/88GkCl156afehD31o8fuvfvWrB37/spe9rPvsZz/bPf3009173vOexb9f//rXL8r8wz/8Q/e2t72ti7Y+8sgj3d13333atl/3utd1Dz30UPeSl7xkIvKaQeDHAgKMmX8SfPGYeQdqPoE9EhBg7FFn29XZCPgeMZuu0tCJCNTHTAQTdTjwgx/8YBEmnDp1ahliRBDx4IMPLsOAUuacc85ZBBYlwHjmmWcOhAwlwKhDjQge3vWud3V33HHHMowo77/pppu6t7zlLYNKsa1HH320+8xnPrP4fb+N8bNNtjORLtCMPRcQYMz8A+CLx8w7UPMJ7JGAAGOPOtuuzkbA94jZdJWGTkSgHDNDYUU0MUKG97///d299967aPHVV1/d3XrrrcvAoYQF5efnnXfeokwEGj/60Y8WIcNZZ53VHWWAUbc16i9hRtRTXv0AI/5/qO0T6QbN2GMBAcbMO3/oi8dv/dZvdd/97neXJ8BVqWrr8LR+ujt0ct1kmFx/mFsMgSsn7FVdEvvWH+aWPcSt/BGoh/INDRec8kerf8egbusmQyGnvG/aNl2BzAAjzhXnn3/+8g5YGS577bXXHvhZfSerf2z3zy1lG0888cQB5He+853LYb9Rb7zqO2bxsxiiG8N377vvvmW7htoU7+23fRfOOdP9VGrZ0PeIciGz6m/12PHQP276d5uL+ND7y5D3Msx96G9+vL/8zR36fX8benjaAvE9MkYw1K+x74T977f97yv1NuLRhzhX97cdZepz9jY65ZgZGg3R3160Mc79/e+4daBwxRVXLIKCeOwk/nbEox0xkuIoA4xoVznm4t/14yRjAcY2Nt5DIENAgJGhfIx19L94xMkp/rDHK07a5UvA2LCww54c++/fdJhcHYSMJdhDbEMXB0P7cIzk3e/93u8tnlUstsdZ13FsO7yvv/76xaYvuOCCA89pbjIU8jjaZJv7IZAZYPTPC/HZ/shHPtK94hWv6O68887F3a36i+Wzzz67OK4vv/zy5THRPx42GbrbP0f1v3DX4UT5MvnCF77wwHPGdZmhZ6MN892P4yVrL1cFGKv+Vm9y8Rb7UI6z+HcMey/P0w+9v3/MDf3Nr13GvhMM3V3O8lRPm0D9aEMZDTB0I27s+22pLfOzUAcYZaTF2DwRYwFGtLuc60uAEaM0Yr6KmPMiApgHHnhgMQfGpo+QrLs5WL5vR91DNw39bWn77Cp9cgKjAcbYH6b+naF+clrfiR5KVWNXS/LZkroWoqEkfyyhz74zfxLd2P/iEablVZ/0MgKMsaFm9c9jmFxcJKwayVEPvev/QRj6A1X/cfjSl750YCKl+AMQKXZ9p6d8/ko9r3rVq7rbb7+969+1qT+f5XfR/k996lPd9773veVIkPoz379TGvXHq57cKf4/PpuXXHJJd/bZZy8vlsqxdc011ywChuuuu24RktTHYrz3rrvuWlyAxb7GH7n4IxQXZkPlh0KW2F5sIxL+2McY4hjOmwyFNJHTSRzlu1NnZoDRP4/E8RWBXZwvylDecr6Mu15jQWj9803+LtbnqLEv5mVkSGnjGWecsRg6XL6k1n9nh7YRn4js4HZ3PoX2pC+waYDR/9xtGmDE5zn+3sUopP6oqP6z/OWiLv4bx8M2Acaq7xB6f3oCQ+e4oe+sY99vTzrAGPoM18qtAUZ8byt/A2I7LQHGqjkwyvH7xS9+cdG8N77xjadNNCrAmN7xoUXDAocKMPp328sHv9zBGvviVZqyaeo6dCKIn9VJfvz/Ph549RePcmc9LmTjQrucVOOiMyPA2HSYXD/AOOwIjPIF58orrzwwsVH5fMXnJCzigv3iiy9ehgPxmYmfxRer+KJUfx5LOFBmX67riPeUYeh91/quQWyjntip71NfPJUvbfHlrh9g1MPPS4Dx4Q9/uLv55psXocUrX/nKA4FHXX4owKjrLV8sS8iz7g+xEymBwwhkBhj1+bA+RuIRjjjm41wQk5iV80L5d38CtDhuy92w73znO2snTyvnijiW60nb6i/Z/QDjtttu62655ZZlsFKHmUMTrR2mD7yXwLYBRv9v9SYBRvyNLH9X4vgpAXzcaR97f/23Mi7ISpgx1HOZd919co5HYOxaoQ5yV32/PckAY+z7a/25j/ZtOgdGCdfLsREjBiPg3nQExqoAo38zbOj73j5eRx3Pp9pWj1vgUAHGuj8c99xzz+AkMasCjHUHz1iSPxRg7MPkM3WAUe6sl+HR9cXpUQUY/eFp4V5GNGyaMkeA0d/Ops8jDo22GXtWcqg95Y9NXLS8+MUvPnAxsurzUu52RkjSHy5YfleWuSrPLvb/sG0TYMRQwi984QuLQybCihJgRHIeQ2Tjj1r9h71fvh9g1GXjd9GmuCsW23HX6rhPt7afGWDUoeBFF110YORSfOYjACxf4M4888xlmNEPMOrjIi7A4vjuz4FRj8Kqz1FDowD7j5CU80kMFS7D3uNLaAkz+8FKvf1N5w7yySOwSqBlDoz6b/Umc8LUf2P6f382DTD6817VoyWHvhPsw+jbXfpEbxJgrPp+uy7AGJoDo4zO3dZxk1VI6lF1mzxe3Q85yijg/vfjTR5l7O9X/wZz/H7TkS/bGnkfgeMUOFSAUSbPGfsStc0IjPpLZ38N5VVJ/lCAcZxwU9l2fRIdeiSnnPiOKsBY9ehHS4BRtrPJHZzaepPhpPWXnfqzWT6v/UdIyiMUdYARd2z7a27H+yLAqO8gRdvKF7S4IOqPLqkvVvo+/f/vP0ISF0oxyVL5bwkw4v9/7ud+bvn8YvlSOFS+H2AMfeEsX/aG7i5P5XOuHbshkB1glGMzRlxE6BB/U+pHqOL4isA3XmMjMPoBRn3Xqh6dUR6viuP4n/7pnxbPL8dIqf6EymMBRh2ilKH2MRprbATGqvPtbnxa7EWWwCaPkAz9rd7k7/dQwFACv7H3198dW0ZgtIzmzLJVz3qBoWuFfl+u+n67LsA4jvlQ+sdMfzLRoZtyqyZIH7qBtmry27FlVIduMsbfufI4cz3vxdD2rUKy/vOqxDQEDhVgxC70n/mvLxjH5sAoyecmqWvNtCrJ3/cAYyigGLogL6MDVp3wW9Ld+jnsbefA6CfTqw6NVQFG/2Ji7At+uYCIu7L1H4F6v7/85S8fGD1U9rO+a1suWLYdgVHCujpwiS925RGSuMsUc23EyI4yJ0a8p8xfUV98xe+HyvcDjCG/dcPV6+DQHBjTOHHPtRXZAUZ8diNEiGXp3vzmNy/mw4m/WXFRFPNhxM9LUL7tHBj1Y2MxLL4+xoYuqMYCjDi2yjns3HPP7U6dOrVo29jfSQHGXI+C6bV7kwAjWt3/W70uwBgLPcqoo7HQvD6GNrlpEW0rQ+xLSB9/S/ujqaYnr0Xlc9UPGervtHGTpX9zaOj75rpR4fVyoYeVt/TwYQW9n8DhBA4dYPSrr08g24zAWJWgr0ry9z3AGLoT2Lfsf9Ee+0O/bYAx9AWnn/AOBS0td002DTDK3cxo04c+9KHuve9973LOlDrAqOezqD+v9eNPZXWCCy+8cDmpWHmGvf9HtDZeNwfG0LFTDxt/7LHHFiMw6uf3S4ARd42jjfEqd2mHytcBxqpROOXLQ7/NY3cADnfaObp3l33q33UYGh7a35d++Fq3KoLY+NzE3e/+tjdZom9VsFvq2fQRt7Fy6x756d/tqU1qtzp07o/QqR+NqH+37RDt7ACjjE6KoKKeMylWEnruuecWI6r6KzUd9Sok/fPsqgCjDjWLfemrcv6p/9ZF0LHJ8tNHd8TZ0i4KbBpgtM6BsW6Iev8xzrC1CskufsJW79O6+fD6c5LF1sbC4TrMGgtHjkJYgHEUirZBYHuB0QBj1XCmuDPUn2iwNKG+K3SUc2CsS/JXTVS5Pc/031lOomMX9v07Jv0QaOhC7zABRvkCUq+6UV8EjV1E119aYhtjy1KtCjDqi8a4yLzxxhsXX4biEZF4vrw8B1ku2B5//PFFPTFB0sMPP7xYGaRM2llf4MXP3/72t3cxc3NcLMSrfrxk3Sok5S7QujumYyMh6ueG6wAjgpV4ZjL2K0ZllDu2/eeM62OzTEZYj6ToX2BtMhRyKkfG0OdpLJgr/tH2/gTALZ/5Tfa9nih16ItWafczzzwzuBZ7HXLEsdQvV/axv/xm/b56Et864CzhXvm8lGOqHunTX/2mP1HsunB6zCg7wBj7AjsU+NZfiuN8EK9+ULNqyHuZsDNGfAx9iY7jNM4v9UoMQyHU0LPKsb3+ubs+72zymVSGwKrj8vnnnz/w603/Vg/NCRN/f2NERP13qd54Cfrjscj4dz2nTD8gHrpxFdsqQ/SHvhOMHUM+AdMUGBqtXQfrLd9vx869/T0/7PxBAoxpfpa0an8ERgOMoTuv/WS8/yW2/551X3LXpa71cK91SX5cJI79wd3l7nQS3b53193B3n7L3pklsMmoknpd+aGl/KKt2wQYm46g6F9ER3AWX/pLwFZmHe+blZCiX66ch+uAbt2jPf3huPVkYesu5kvQUbdv22PnJAKMrM+iegjMVcD3iLn2nHaflIBj5qTk1UvgxwKjAUb8sj8MemjodD85rSeuGZsDoySfMUKjPzvwUCq67rGSMklaGepfJohsucCY6wfCSXT7ntv2Imz7Gr3zqAXGAox+39bzePSX8ts2wGjZl7G7hENLq/W3u+0jJP3AoYzIiJ/XI5zGRhWsCoTXhdNjNgKMlk+NsgRyBHyPyHFWy+4IOGZ2py/tyTwFVgYY89yl/Wq1k+h+9be9PSiwaYCxbgLgVSMw+nNgtA49HRvhsGnAetgAY2g53/pRorEAY9XQ7DDZZhk6AYYjmMD0BHyPmF6faNG0BRwz0+4frdt9AQHGzPvYSXTmHaj5hxJY9Zx2fZG+bgLgbR4h2aTh/cfu6vdkBBhDjwL2R6cM7Xt/wt/+vm77uJ4AY5NPjTIEcgV8j8j1Vtv8BRwz8+9DezBvAQHGvPtv8QxQf/Ktme+S5hPYWGCTOTBizon+mumbXMRve5FeGr9ueeDjDjDGJrLr1zs0wec555yzXJZwqDNaVg6q3y/A2PijrSCBNAHfI9KoVbQjAo6ZHelIuzFbAQHGbLvuxw13Ep15B2r+oQQ2WYVkkwmAj3oExthjI/XOHmeAsSpgGFpeOdoVqwaMzfbeb+vYYyfrOlOAsU7I7wnkC/gekW+uxnkLOGbm3X9aP38BAcbM+7CcRMuyjWWi1VjuMyYzLRcmZTc3nbgytvfkk0+uvAsb2yxLf7773e8+IDl20bjJpIXbdEndjrE21dstF3GxGkSsRV8mNYwJHseWcB1qV9nOY489dtpymGUS231Z7rC+yA2rWEIvPoO/8zu/042ttLFNX/dDgFhmtD9PRZmfYdMJgIdGadRL6fbbGduPJTbHPs9Dj6z0584YCjCGPrubzoHR9x9a3rC41PtW2lUmQe5bls9vWRWlLHloDozDfnq9n8A0BFyMTaMftGI+Ao6Z+fSVlu6mgABj5v06FGA88sgjo3dTdzXAqLuxNcCIJXhbA55Svlwg//CHP+x+6Zd+qStBTvz8+uuv777xjW90b33rW5c/n/nHbWXzxwKM973vfd0dd9zRrVvqc5dt7NuPBYzA8EkgMD0BF2PT6xMtmraAY2ba/aN1uy8gwJh5H5eTaAxZj1eMJvja1762GBkxNBx86Nn/cqc27ijHXdW4Axt3teNVlsWt776WcnFBepgRGP1leus7uvUd7LoNMTriVa96VXf77bd39bK+pR3R5rI0b9w5vuaaa7qrrrqqe/jhhxf7U+42x7/j5/UIjA9+8IPdDTfcsNj/2Mef+Zmf6S644IJl+FBGudSjTco+RJvizvSdd97ZnXXWWV14xQiEeJVt9O/o9/frjDPOWLaztqiXI673uX8X/Uc/+tFypMNYf8Xn5LOf/WwXdd1///2L/YxREmEW7a9Hi0TZ8jnou8UcCXfffffyMxITZhbnaOMf/uEfLj6Hv/u7v9v90R/90eK/4eK13wJZAcZ+K9t7AgQIEDhuAfPPHbew7RMYFxBgzPzTsSoFXhdgxK7HBerll1++uEivVx645557lo+Q9OcZqMvFxe/5559/2giDTR4hqbfzpS99aXERHRfXTz/99OK/8RhMvGIkw3XXXbf4dwQOl1xyyWKESV1H3Y7+4yTxvihf78fFF198WoBx7733dvUjJBFkDLXj9a9//fJTUwKMN77xjV1c8JdHJUrYEY/hhE8JUk6dOrWwqucQKPt17bXXntYP4dJfTaPsT92/Ud8nP/nJRXvPO++8Rb+GSYwu6TvH7yIgKQZPPfXUMrgqdYVDmfjyla985cIqQosSVEQbon/qfot6j+sRoZkfppr/vwIZd60y6tChBHZJwDGzS71pXzIEHDMZyuogIMDY2c/AugCj3CWvAcoIiv58D/VF9Ze//OVlgNGfkLAexfHhD394NMAoIyHqussIgnJRHIFEXGTXcxXU83jUd+37EwfWjyzcd999y3aMjQqp573YJMCIdpeL+LCKERVlhEXZp3qb8ehOCStK6FK3q3boP25Rr5JRRklEQNAftVDmJrn55psPhAX19iIAqkOPur8ilOkHIiWAqss98MAD3aOPProIKaINpU3xKEi0tQQxdb0CjJ09zRzZjmV86cuo48hAbIjABAQcMxPoBE2YlYBjZlbdpbE7KGAExsw7dV2AEbsXow/Ka9XFbH0x2g8wyqMEZTslZBi7QF83AqM/SiC2WwcP9WMT9SSC9QSbmwQY/YkHo5569MG6STyjTTHio0xc2J+stA4wYtsRYlx55ZXLiUDrgKd+JCPKFsP4d71fdYARv6sfgYn/j0dPoo469OgHGGP9VY9uiWCiNu8HGP0AKoKvCDTe+973LkbCRPAkwJj5CSS5+Rlf+jLqSGZTHYFjFXDMHCuvje+ggGNmBzvVLs1KQIAxq+46vbGHCTBaRmCURyn6IwK2nQNj1QiMoTkmStBQX7TXIzKGRmD0H9toHYERc3xEmPCFL3xhAR+PsdSPj8TP6m3GBX60L4KJ5557bjmRaoxwuOKKKw481tEfgTEWYMSjPPVIiE1HYIz1V390x6oAY2gVmnp/BRgzP3mcQPMzvvRl1HECdKokcGwCjpljo7XhHRVwzOxox9qt2QgIMGbTVcMNPUyAEVvcZg6MuIh+8MEHFyMZVj1CUl94R1395SDH5sCoR3+U1TzqOTDKXBHr5sDoBxhlBETLCIwyb8a55567fJyi7omhUCQmDC2TcJaAoB9g1HNWxPY2CTDKMpcXXnjhaavMrJoDo+6vel6PVSMw6jkwIrQpfVUeITECY+YnjhNqfsaXvow6TohPtQSORcAxcyysNrrDAo6ZHe5cuzYLAQHGLLppvJGHCTBihMGq1Soi3BhahWRo9Y/+oxXrHiGJi+KxVUj6P+8/QlJW6xhbDaU8fhLvi7bWK6qEZD2pZv8RkhLqxH8jhFi10kqU6Y9IqMOC/nvrx2J+//d/v/v6179+YBWUmES0jPooIyhKaFFWRnn729/effGLX1yEKfXvbrzxxsX2yiSidb/W/bXpCIzSjmJXrM8888zl5Kf9ERhlVM1jjz22mEy0P1pl5oea5h+BQMaXvow6joDCJghMRsAxM5mu0JCZCDhmZtJRmrmzAgKMmXftPp1E+0vAZnRdf9RIRp3b1NGfaHWbbXgPgeMWyDhfZdRx3E62TyBTwDGTqa2uXRBwzOxCL9qHOQsIMObce13X7dNJNDvAKKMYyiMrU/qo9Eep1KMsptRObSFQC2Scr0od5fGvGL1Uv8rjXfGzoUl+4+dl5Fn9vggJy1LP9eiieLyqv9pTHI8xeXKsXBSPlPVfl1566eAjaT4tBE5CIOO4PIn9UieB4xJwzByXrO0S2ExAgLGZ02RLOYlOtms0jACBnkDG+aofYNx0002LFXPqwCIeL4uf9ZdmjjIl+KjfV+biid9fcMEFXf3IXAQY8apXe+p3/FA9PhwEpiKQcVxOZV+1g8BRCDhmjkLRNghsLyDA2N5uEu90Ep1EN2gEAQIbCGScr1YFGNHEen6exx9//MByxGUX+qsrRQARoylizpx4f5mvJsoLMDboeEUmLZBxXE4aQOMINAo4ZhrBFCdwxAICjCMGzd6ck2i2uPoIENhWION8tS7AqB9F66+2E/s1NAIjQot4xciLCCwuueSS5agOAca2nwbvm4pAxnE5lX3VDgJHIeCYOQpF2yCwvYAAY3u7SbzTSXQS3aARBAhsIJBxvmoNMGJUxRNPPHGg9WXlo/hhvZRzzH0Rc2E88sgjy0dGhubAqOfZiG14hGSDD4ciJyaQcVye2M6pmMAxCDhmjgHVJgk0CAgwGrCmWNRJdIq9ok0ECAwJZJyv1gUY9Yo9/REYQ6v5DE302V/COfbVHBg+83MVyDgu52qj3QRO6m8ZeQIExgUEGDP/dPjiMfMO1HwCeySQcb5aF2CsmwMjRlR897vfXa4SMvSISD1HhkdI9ugDvKO7mnFc7iid3dpTAcfMnna83Z6MgABjMl2xXUOcRLdz8y4CBPIFMs5XqwKMMppi01VIYqTFZZdd1tUrkoRaHYLE7+JlBEb+50mNRyOQcVweTUtthcA0BBwz0+gHrdhfAQHGzPveSXTmHaj5BPZIION81Q8wvvrVrx4QruenGJubIgKKBx98sHvHO97R/dmf/VkX73nJS16y3E4dhMR8GAKMPfoQ7+CuZhyXO8hml/ZYwDGzx51v1ychIMCYRDds3wgn0e3tvJMAgVyBjPNVRh25amojcLwCjpnj9bX13RNwzOxen9qjeQkIMObVX6e11kl05h2o+QT2SCDjfJVRxx51mV3dAwHHzB50sl08UgHHzJFyHvnGnn/++cWy57fffnv3hje8ofuLv/iL7txzzx2t57nnnls8BvqpT32q+8Y3vrEYcXnppZd273nPe7rzzjvvyNtng4cXEGAc3vBEt+AkeqL8KidAoEEg43yVUUfDLitKYPICjpnJd5EGTkzAMTOxDuk151vf+lb31re+tXvmmWcWk3JHOPEbv/Ebg42OpdLf+c53dg888EB36tSp7jWveU33zW9+c7H8+atf/eru05/+dPfyl7982ju8h60TYMy8051EZ96Bmk9gjwQyzlcZdexRl9nVPRBwzOxBJ9vFIxVwzBwp55Fv7P777+9ihbAbbrih+8IXvtD9/M//fPfJT36y+3//7/+dVtef//mfd9dff3139dVXdzHB90/8xE90MYIjRm984AMf6K677rruox/9aPe/F8xH3lYb3E5AgLGd22Te5SQ6ma7QEAIE1ghknK8y6tDRBHZJwDGzS71pXzIEHDMZytvVEY+DRBjx7//+792f/umfdn/8x3/c/eu//mv3uc99rnvta197YKOl7NDvY/TG2972tu773/9+95d/+ZfdS1/60u0a5F3HIiDAOBbWvI06ieZZq4kAgcMJZJyvMuo4nIJ3E5iWgGNmWv2hNdMXcMxMt4/++Z//ufv1X//17oILLujuvffe7rOf/exiNMatt97a3XLLLQca/h//8R/dFVdc0f3UT/1UFyMxzj777AO/j3k0PvOZz3T33Xdf96Y3vWm6O72HLRNgzLzTnURn3oGaT2CPBDLOVxl17FGX2dU9EHDM7EEn28UjFXDMHCnnkW7stttu697//vcv5r2IuS1iPotf+7Vf637yJ3/ytMk8y5Lol1xyyaJ8/xVLqsdEnhFuXHnllUfaThs7nIAA43B+J/5uJ9ET7wINIEBgQ4GM81VGHRvurmIEZiHgmJlFN2nkhAQcMxPqjKopMWHnr/7qr3Y//OEPF2HFT//0T3f/8z//0/32b//2YpLO/mSef/3Xf70YrRETfA4FGPHoyK/8yq8s5saI0Rhe0xEQYEynL7ZqiZPoVmzeRIDACQiYBOsE0FVJgAABAkcuEBM9ek1L4G/+5m8W81/EEqh/8id/spy0s/z8F3/xFxePlcRojHh9/vOf7y677LLFSI2hAKP8XoAxrX6O1ggwptcnTS0SYDRxKUyAwAkKZJyvMuo4QUJVEzhyAcfMkZPa4I4LOGam18H1SIuYtyKCifJ66qmnFo+R/Od//udiPotf+IVfWPzKCIzp9eOmLRJgbCo10XJOohPtGM0iQOA0gYzzVUYdupbALgk4ZnapN+1LhoBjJkO5rY4yIefXvva1lW+88cYbu5jbIvrQHBhtxlMqLcCYUm9s0ZZyEv32t7+9SBu/+tWvHthKGRY19vsYZhVJ5VlnnbV8XxkyVX4wNnQqysXayA899NCi6FD9L3vZyxYzAL/+9a9flBnb9g9+8IPuqquu6h5++PgCAtoAACAASURBVOHTFIba2C8U242Jduq6SplN9ydOaPEqbQ6Xm266afGzemhZnPBigqAYhvaSl7xktNc2LRfti3b3+2GLj4O3EJi0QMaXvow6Jo2scQQaBRwzjWCK772AY2Z6H4E777yzu+GGG7o3vvGN3Ste8YrTGvjss892f/u3f9ude+65y/kxYkTGL//yLy++yw99B7cKyfT6ubRIgDHdvtmoZf0AIy643/KWtyzeW0KBWMf4da973SJgGPr9qVOnlpPTxEX8gw8+uAgl4oAu2zjnnHNOez5sKMCot78uZCjbruuP98SF/7ve9a7ujjvuWAYfqzBiO9dff/2iSCybVE+00w82xuqM99YBxiOPPLLY31h6SYCx0UdRIQJrBTK+9GXUsXZHFSAwIwHHzIw6S1MnIeCYmUQ3LBvxzDPPdHGt82//9m8HHhGpW/ncc88t5seIiTk//vGPL64b/vu//7t7xzve0f3Lv/xL97nPfa577Wtfu3zL97///cXknv/1X/+1eM9LX/rSae30nrdGgDHzD8CqACN2LS7Azz///MU6x/0Ao1y0P/nkk4uL9RilEQd3rJVcRkxEmbGftwQYq8KK/miGfoCxbiRD/P6uu+5anLwihCgjI1rqjP2M/YnXi1/84i6GoIXdJgFGGYL2xBNPLIKi/oiU8rPvfOc7izbW5SIkMgJj5geh5m8skPGlL6OOjXdYQQIzEHDMzKCTNHFSAo6ZSXVH9/d///eLZU5/9md/djGi+YUvfOFgA++///7F9/o3vOENy3Jx/RMjuGMUeIwqjwk+Y4LW22+/vfvABz7QXXfddYufm4R8Wn0uwJhWfzS3ZlWAUR4biVERm4zAGLuQHgsCWgKMllEVLWVLCBP/jZEXcWKK9ZxjFErrdobw1wUY8Z4Ihi6//PJl/bGMUwxFe/zxx5ePmpRyZYRKbLeU+9KXvuQRkuZPvjfMUSDjS19GHXO012YCYwKOGZ8NAm0Cjpk2r+MsHWFDfP+PwKGMrBir71vf+lb31re+tYsbtzGZ55ve9KYuRm9cc801i5uPMSL8Na95TffNb35zcQ3x6le/uvv0pz/dvfzlLz/OXbDtLQQEGFugTekt6+bAKPNXrJsjI/Zp1UiAMpKj/3jGujkwyvwV9cX8qnkjoh0twUN5fCQS0hg1EvtQHv9YN3Jjk36M/b777rtPK1qPqqhHkNRtjzeV38XcJMUq9r9uW/zOHBib9IYycxfI+NKXUcfc+0H7CdQCjhmfBwJtAo6ZNq/jLF1CiXhEJB4DedWrXjVaXR121JN5xvwYMYL7r/7qr7pvfOMbi0fo4/olRmacd955x9l8295SQICxJdxU3rbuEZLSzno0xtjohKMIMMbmwGgJJVrLlscyyr7W4ULLXBpDfbpuBEY/mKgft+kHGPWSTvG7Mlno008/LcCYygGlHccqkPGlb12oW08KXD/+Ve94OYeUsDW+2MQXmfKKOzVlrqH4WX8S4v77x9aaL+fl2EZsM84nQ2vS98vVj6MNtbv8/tprrz0wJ1AdRA+Fs2XS59jmWOhdzlvxpW5o4ua+zbF+oGz8SAQyjssjaaiNEJiIgGNmIh2hGXsrIMCYeddvG2DEbvcn7NxkDowYchVzasRIjJZHSMYeQ4k6S8hQLhZaAoyhgKF8SY8hYfFMW3+S0KE6xz4G6wKMuFDYdATG2CgLc2DM/CDU/I0FMr70rTon9s9Dm5xrhs6T9XxC5UK/PEYWGP3Jg+P/P/KRj3Rnn332gdWL+j+PAGOTcnHeWRXOlmAmngMuEzJHu/oBRvysrLDUn7C5H3r3O3no96XeGPlXBzwbf0AUPBGBjOPyRHZMpQSOScAxc0ywNktgQwEBxoZQUy12mABjKFRYtwpJ/L5M+hn/fvTRRxfzPcTwq6FJQmu3sRVB+iucbHJREdsd+4Jdtyvml6iXV121qspQH68LMOI928yBUTt7hGT7o2uT5YHX3WX/8Ic/vGhAvVRuudgb+vkmre3XObYU8dDnq7/9sUeh6mNx7LNbHn/qjwio21ffdV/V7noUQv2eTTxKmYwvfevOibXbunPN2DmmDh3vueee5TmxtqjrKeXPOOOM7s1vfvPy4j76/0UvelH3la98ZRFslHPBunKbBBgRrMZ26vPrqgAj2l57lBEWY6PqNjn/1stzt3xOlM0VyDguc/dIbQSOV8Axc7y+tk5gnYAAY53QxH+/7st6af6qL+L1BX6UL8Ody3vri696qHQZShxzT4xdSMY26iHF/W0PXQhtugpJPQKknlejfxdwkzrHunldgFHmsxhaXWTVsO/azgiM7Q+yoc916132oc/RurvPq1rcn5dl7CJ57LGCettjd9JLmDAWJNRzwfTDmHrfLr744uUopRixFMuKlflk+vO5xEo/sc56vIZGNm3Sixlf+o5yBMbYOabsa71UdX/EQf3eEkzEs7nf+973lqs+xSiKOHdEeFYHGOvKbRpg3Hbbbd0tt9yyXFlqXYCxbuntuo/HjpGjmHtok8+SMkcnkHFcHl1rbYnAyQs4Zk6+D7RgvwUEGDPvfyfRmXeg5h9KYNVd4DJSaJu77PXFZ4zQKI9NbdPYoZFO5TGm2F5/BFKpo4xYiomm4t9leeCygk19kbuuXfX+9B97qkcs1XfMxx77irrWjf4Ya0/G+WrdHBirRpyUdpcy68LFVQHG0ES90XdlqecINWLC4Vj6rZ7sNx41W1dubA6M0u667gceeGA5Ui5GU5TP8lA4OxRgRDvrV5lDZGzUnQBj3dE4vd9nHJfT22stIrC9gGNmezvvJHAUAgKMo1A8wW04iZ4gvqpPXOAoRmDETvQv5oZW3dl2Z4faWLYfIUu8+o+v1HVt+whJvY3+Y1X1fCxjowzGwqFVwcY6o4zz1dgIjKEga124dZgRGEMBxh133NHdfPPNi1EuZT6hiy666LQAY125TUdgROh15plnLkbMxEiPCExWBRjrlt6u+3fVqL56xaV1nwm/P3mBjOPy5PdSCwgcnYBj5ugsbYnANgICjG3UJvQeJ9EJdYampAtssjzw2BwY9Z34+k573Fm++uqrl8PuD7tT/XAk2lMex4g74scdYPQv0vsjLsYu0ofu0JfHXvpzamxqlHG+WvUISX+On3UBxqrHJEoftsyBEfMFRfl4jOTrX//64jMWr/4IjHXlWgKMeMyt9PG55567nNR47PG4MjmoOTA2/VTPv1zGcTl/JXtA4P8EHDM+DQROVkCAcbL+h67dSfTQhDYwY4FNlgded5Eau1+vwPPlL395OeT+sJMQlsc94oI0ttWfH+M4J/GM/RpaFaL/WMRQgNFvd/8jsm5kwthHKuN8dZRzYMR+jK1CUlYd2XQVkjLqJSYWjol/y6MYjz/++GCAsapca4AR+1GWTS1zGvU/e1YhmfGJ8JBNzzguD9lEbycwKQHHzKS6Q2P2UECAMfNOdxKdeQdq/qEEhu6Qt95ljwaUi7eYVyLujMdw+8MsAzm22s0mo0H6INs+QtJf9adst7+9ekRGlInHDcbm5ai3sWoZz6kGGNGu2iX+v0zAW7e5nmS3hBgx2XF59VeVqSc3jjL9ESr9ET71ykVDj5rUKzuVoKQuNzYHRml3tKFe3jn+vx+0lECj3u96VNK6iZljH2M/+nNk1JM2H+rg9uY0Ad8j0qhVtCMCjpkd6Ui7MVsBAcZsu+7HDXcSnXkHav6hBI5qDoz6InXbxyPqHdlkZEWU36TcNgHGqlEnY6uQvPvd7x5tT3/UxtjEn+s6M+N8lVHHuv30ewJzEnDMzKm3tHUKAo6ZKfSCNuyzgABj5r2/arh0uSgrqzEc5a727wb27/YN1VUugmKCurJ8YFwsts43MLb8ZH/Z0npp1aPc9yltq14NIi6GL7nkku6JJ57ojqPPp7TfpS2bLA8cZTe5y15GR4RhPalm64SeY3eu+3ft+wFG/RhLLE1cXpsGGP2VJ+oRA7GtOpipR4KUu+7r2l2Wbu1vq+VzkfGlL6OOln1WlsDUBRwzU+8h7ZuagGNmaj2iPfsmIMCYeY+fVIBRs226bN7QkoRjF22ruiW285GPfKQ7++yzl0tLRvmxn8+8i1c2fyzAiDfFHXUvAlMSyPjSl1HHlEy1hcBhBRwzhxX0/n0TcMzsW4/b36kJCDCm1iON7WkNMMrohaimTCIXkwvWPy93asvyezEvwP3337+4s1/uIpfQ4oMf/GB3ww03LJ6DLu+Lf8ez0eVVnonuj8CIMvG7hx9+uItnt3/zN3+z+8d//MeuTHhYr9ZQT6ZYtnPGGWd0b37zm5dzFcSd8he96EXdV77ylWWwUd81Ls+Hv/KVr1w+53/33XcvmtlfkWKo/VGubC+2FXfJow3lbn39THnfKQxvv/32xX7G72KZwXCq663vitd3y2N/Sx1/93d/t9hGTAj49NNPL51jOxdccEH36le/evHzeB1mDofGj6HiBDYSyPjSl1HHRjurEIGZCDhmZtJRmjkZAcfMZLpCQ/ZUQIAx845vCTDqFQkuvvji5UX8zTfffOAxjrhIj9c111yzKPPUU08tgoZ65vv4fXlsJH5e/7ue3K9+Vj5m1Y8L77FHSGLZvvpxktKO/kiCEmBEKBDLEcbFfYzkKI+lxP/fe++9i4AggoJoezxOUuYbiJ/FfsUrwpJoVwy3j7bFa6z9sVpAf4nBCy+8cFF/vZ9RLh5ZiKDixS9+8eLf11577WJERLThkUceOa2u/pKF9SoQZTWC2I+630q9+/K4yMwPVc1PmrPHF0sfNQJtAo6ZNi+lCThmfAYInKyAAONk/Q9dez/A6M8IHxWUu/xjyyd+/OMf7973vvd1t95662JUQXmVmfVPnTq1fByhzAdw0UUXDQYY/Xkn6jrXBRhRd5nHIS7Ur7/++u6666470KZoW9lmlI3goIQVEQxceeWVp82+X/anPG5RAoyyX6seY6nbf8899xyYW2Jse1Ff7dQPRErgUNcboybqsKW/MkH9u/qxkfrfh/4w2QCBYxbI+NKXUccxM9k8gVQBx0wqt8p2QMAxswOdaBdmLSDAmHX3/d8qJGOTGfYvdh999NEDj2jUIyfKRIfl0ZKgiZEK9ZKSmwQY/eX5yvY2CTAiMChBxF133dXdeeedXf34SB1gxEiOGD0SIcd9993XnX/++V0drJRHYOIRlfKKMKcEGGW/+gHGWPtvuummxWbK4xz9AKOupwRH/UCl7o9+gFE/thLvrx8VidEh5dEaAcbMD9o9bn7Gl76MOva4C+36Dgo4ZnawU+3SsQo4Zo6V18YJrBUQYKwlmnaBlkdIxkZglEcsyp6OjSyoR2SMjcDoP7bROgKjPAoSF+8xn8XQRJT9URHxGMnXv/71xQiSeJVQ5oEHHujqwKa/X0MBRn8kRMsIjDroKZb9CU5XBRh1SFF/6oaWsCyjOIzAmPbxqXUHBTK+9GXUoV8J7JKAY2aXetO+ZAg4ZjKU1UFgXECAMfNPR0uAMTYHxtAogWApc2DEv+Pufz0HRB0U1HNg1AFGGQFR3r/JCIwoW88TUT/SUrqqH4rEyIUyyiPaOBRgPPvss4sJL2POilUjMOoAo9/+TefAKHVdfvnlB0aExOM1YwFGfw6MKPfggw8u5u8IUyMwZn6gav5C4H//4NAgQIAAAQKzFnj++edn3X6NJzBnAQHGnHuvmhRvk0dIYlfHViGpV+voP0JyzjnndGW1jrKiSD2yILZbHn+IoOO9733vcmWRG2+8cVFnmaeiP4lnmZTyscceW1ykR2AxtNxq3U317+uwIEZrDLWrrJDy9re/vfviF794YBLRWKmjfpSjrFBSVkap218CiJjwM1YJecMb3tA999xzg6uQlHlHNh2BEftdr0JSHh8Z8qhDkNKf9WomM/9Ia/4OC2TctcqoY4e7yK7toYBjZg873S4fSsAxcyg+byZwaAEBxqEJT3YDx3kSLY+MDD0acZx7XebZGHp85Djrbdn20ASnLe9XlsA+Chzn+ap4ZtSxj31nn3dXwDGzu31rz45HwDFzPK62SmBTAQHGplITLXecJ9HsAKPUF9RlwsopsdejV6JdRj1MqXe0ZQ4Cx3m+EmDM4ROgjVMUyDgup7jf2kRgWwHHzLZy3kfgaAQEGEfjeGJbcRI9MXoVEyDQKJBxvsqoo3G3FScwaQHHzKS7R+MmKOCYmWCnaNJeCQgwZt7dTqIz70DNJ7BHAhnnq4w69qjL7OoeCDhm9qCT7eKRCjhmjpTTxgg0Cwgwmsmm9QYn0Wn1h9YQIDAukHG+yqhDHxPYJQHHzC71pn3JEHDMZCirg8Dq75OLtSy6rnvekkDz+6g4ic6vz7SYwL4KZJyvMurY1/6z37sp4JjZzX61V8cn4Jg5PltbJrCJgBEYmyhNuIyT6IQ7R9MIEDggkHG+KnWUpaVjGeX6VSbf3WTp6Xpp47KNWEI5lpOOZZXj9+9617sWSzPHksf1a2g1pXq56ihblqWu3xeTBcdSzWVZ6aE2lPIf+9jHuosuuqh7//vfv1iqOtoUrzIhciwHHa+6zfH/0Y5PfvKTyzriZ/Vy0v198THebYGM43K3Be3dvgk4Zvatx+3v1AQEGFPrkcb2OIk2gilOgMCJCWScr/oBxk033dS95S1vOXBhH0tDx0X9ZZdd1tW/Lxf3Tz75ZPeJT3xiMKCIYCJeY78vuP0AI0KDBx98cBl+DAUoETxcf/31i01ccMEFXX8p6djGo48+emCVpgg46gCjbPfyyy9fvr8fipQgpV5JSYBxYofFiVeccVye+E5qAIEjFHDMHCGmTRHYQkCAsQXalN7iJDql3tAWAgRWCWScr1YFGNG2EixcccUVWwUYEQbE6IhY6vnxxx/faATG2GiPeltnnXXWIjC56667ughYImSoR1WUcGVdgBHvKwFM3Rf1z0sQ8tRTTy0DHAHG/h67Gcfl/ura810UcMzsYq/apzkJCDDm1FsDbXUSnXkHaj6BPRLIOF+tCjDqIOEwIzDOP//8xeiGTR8hiaDiox/96HL0xViXR7AQr9h2BC2XXHLJcvTIJgHGmWee2V111VWLAKSMOil11W144IEHFiFHbL+EMc8++2x39dVXd7feeutpj8Ps0Ud0L3c147jcS1g7vbMCjpmd7Vo7NhMBAcZMOmqsmU6iM+9AzSewRwIZ56t1c2DEvBEREGw7B8all166fISjJcAoQUGMtBh6lcdHrrvuukWAEIHDI488snhUpbzWPUKyKsCoHzUpAUaEKhF4nDp1qosRKQKMPToYq13NOC73U9Ze76qAY2ZXe9Z+zUVAgDGXnhppp5PozDtQ8wnskUDG+WrdIySFe9MAoz9JZz2S4Tvf+c5Gj5BsMgJj3YSh0e6jDjDKPB4xh8Ztt93W3XLLLUZg7NHxWHY147jcQ1a7vMMCjpkd7ly7NgsBAcYsumm8kU6iM+9AzSewRwIZ56tNA4yyUkf/cYt1k3TWc0VE122yCslYWFLmvLjzzjsXc1HEqx5xMTQR6FHNgVHPkxH1fPe73+1+9KMfCTD26HgUYOxhZ9vlIxHI+Ft2JA21EQI7KiDAmHnHOonOvAM1n8AeCWScrzYNMIK9XLjHhJxlEs0INOIxk5hDYugRkW1GYERdY6uQxGohqyYUrQOLdSMwYhnVTVchqQOM8p5nnnnmwNKqe/TR3OtdzTgu9xrYzu+cgGNm57rUDs1MQIAxsw7rN9dJdOYdqPkE9kgg43zVEmCUEOPuu+9e9sJDDz20nABz6LGOl73sZcuL/FW/v++++7oy2WfZeFm+tPx/mY9j7BGTsv0SqGwSYMS2y+iShx9+eFFVTFga+xUBRwlT+iuV9Jda3aOP5d7vasZxuffIAHZKwDGzU91pZ2YoIMCYYafVTXYSnXkHaj6BPRLIOF9l1LFHXWZX90DAMbMHnWwXj1TAMXOknDZGoFlAgNFMNq03OIlOqz+0hgCBcYGM81VGHfqYwC4JOGZ2qTftS4aAYyZDWR0EVn+f7LruBS/ouu75559/ntXMBJxEZ9ZhmktgjwUyzlcZdexxF9r1HRRwzOxgp9qlYxVwzBwrr40TWCtgBMZaomkXcBKddv9oHQEC/yeQcb7KqEOfEtglAcfMLvWmfckQcMxkKKuDwLiAAGPmnw4n0Zl3oOYT2COBjPNVRh171GV2dQ8EHDN70Ml28UgFHDNHymljBJoFBBjNZNN6g5PotPpDawgQWJ2YH/ejis6JPoEE2gQcM21eShNwzPgMEDhZAQHGyfofunYn0UMT2gABAkkCGeerjDqSuFRDIEXAMZPCrJIdEnDM7FBn2pVZCggwZtlt/9doJ9GZd6DmE9gjgYzzVUYde9RldnUPBBwze9DJdvFIBRwzR8ppYwSaBQ4EGM3v9gYCBAgQIECAAAECBAgQIECAQJ6AZVTzrNVEgAABAgQIECBAgAABAgQItAp4hKRVTHkCBAgQIECAAAECBAgQIEAgXUCAkU6uQgIECBAgQIAAAQIECBAgQKBVQIDRKqY8AQIECBAgQIAAAQIECBAgkC4gwEgnVyEBAgQIECBAgAABAgQIECDQKiDAaBVTngABAgQIECBAgAABAgQIEEgXEGCkk6uQAAECBAgQIECAAAECBAgQaBUQYLSKKU+AAAECBAgQIECAAAECBAikCwgw0slVSIAAAQIECBAgQIAAAQIECLQKCDBaxZQnQIAAAQIECBAgQIAAAQIE0gUEGOnkKiRAgAABAgQIECBAgAABAgRaBQQYrWLKEyBAgAABAgQIECBAgAABAukCAox0chUSIECAAAECBAgQIECAAAECrQICjFYx5QkQIECAAAECBAgQIECAAIF0AQFGOrkKCRAgQIAAAQIECBAgQIAAgVYBAUarmPIECBAgQIAAAQIECBAgQIBAuoAAI51chQQIECBAgAABAgQIECBAgECrgACjVUx5AgQIECBAgAABAgQIECBAIF1AgJFOrkICBAgQIECAAAECBAgQIECgVUCA0SqmPAECBAgQIECAAAECBAgQIJAuIMBIJ1chAQIECBAgQIAAAQIECBAg0CogwGgVU54AAQIECBAgQIAAAQIECBBIFxBgpJOrkAABAgQIECBAgAABAgQIEGgVEGC0iilPgAABAgQIECBAgAABAgQIpAsIMNLJVUiAAAECBAgQIECAAAECBAi0CggwWsWUJ0CAAAECBAgQIECAAAECBNIFBBjp5CokQIAAAQIECBAgQIAAAQIEWgUEGK1iyhMgQIAAAQIECBAgQIAAAQLpAgKMdHIVEiBAgAABAgQIECBAgAABAq0CAoxWMeUJECBAgAABAgQIECBAgACBdAEBRjq5CgkQIECAAAECBAgQIECAAIFWAQFGq5jyBAgQIECAAAECBAgQIECAQLqAACOdXIUECBAgQIAAAQIECBAgQIBAq4AAo1VMeQIECBAgQIAAAQIECBAgQCBdQICRTq5CAgQIECBAgAABAgQIECBAoFVAgNEqpjwBAgQIECBAgAABAgQIECCQLiDASCdXIQECBAgQIECAAAECBAgQINAqIMBoFVOeAAECBAgQIECAAAECBAgQSBcQYKSTq5AAAQIECBAgQIAAAQIECBBoFRBgtIopT4AAAQIECBAgQIAAAQIECKQLCDDSyVVIgAABAgQIECBAgAABAgQItAoIMFrFlCdAgAABAgQIECBAgAABAgTSBQQY6eQqJECAAAECBAgQIECAAAECBFoFBBitYsoTIECAAAECBAgQIECAAAEC6QICjHRyFRIgQIAAAQIECBAgQIAAAQKtAgKMVjHlCRAgQIAAAQIECBAgQIAAgXQBAUY6uQoJECBAgAABAgQIECBAgACBVgEBRquY8gQIECBAgAABAgQIECBAgEC6gAAjnVyFBAgQIECAAAECBAgQIECAQKuAAKNVTHkCBAgQIECAAAECBAgQIEAgXUCAkU6uQgIECBAgQIAAAQIECBAgQKBVQIDRKqY8AQIECBAgQIAAAQIECBAgkC4gwEgnVyEBAgQIECBAgAABAgQIECDQKiDAaBVTngABAgQIECBAgAABAgQIEEgXEGCkk6uQAAECBAgQIECAAAECBAgQaBUQYLSKKU+AAAECBAgQIECAAAECBAikCwgw0slVSIAAAQIECBAgQIAAAQIECLQKCDBaxZQnQIAAAQIECBAgQIAAAQIE0gUEGOnkKiRAgAABAgQIECBAgAABAgRaBQQYrWLKEyBAgAABAgQIECBAgAABAukCAox0chUSIECAAAECBAgQIECAAAECrQICjFYx5QkQIECAAAECBAgQIECAAIF0AQFGOrkKCRAgQIAAAQIECBAgQIAAgVYBAUarmPIECBAgQIAAAQIECBAgQIBAuoAAI51chQQIECBAgAABAgQIECBAgECrgACjVUx5AgQIECBAgAABAgQIECBAIF1AgJFOrkICBAgQIECAAAECBAgQIECgVUCA0SqmPAECBAgQIECAAAECBAgQIJAuIMBIJ1chAQIECBAgQIAAAQIECBAg0CogwGgVU54AAQIECBAgQIAAAQIECBBIFxBgpJOrkAABAgQIECBAgAABAgQIEGgVEGC0iilPgAABAgQIECBAgAABAgQIpAsIMNLJVUiAAAECBAgQIECAAAECBAi0CggwWsWUJ0CAAAECBAgQIECAAAECBNIFBBjp5CokQIAAAQIECBAgQIAAAQIEWgUEGK1iyhMgQIAAAQIECBAgQIAAAQLpAgKMdHIVEiBAgAABAgQIECBAgAABAq0CAoxWMeUJECBAgAABAgQIECBAgACBdAEBRjq5CgkQIECAAAECBAgQIECAAIFWAQFGq5jyBAgQIECAAAECBAgQIECAQLqAACOdXIUECBAgQIAAAQIECBAgQIBAq4AAo1VMeQIECBAgQIAAAQIECBAgQCBdQICRTq5CAgQIECBAgAABAgQIKZApNQAAIABJREFUECBAoFVAgNEqpjwBAgQIECBAgAABAgQIECCQLiDASCdXIQECBAgQIECAAAECBAgQINAqIMBoFVOeAAECBAgQIECAAAECBAgQSBcQYKSTq5AAAQIECBAgQIAAAQIECBBoFRBgtIopT4AAAQIECBAgQIAAAQIECKQLCDDSyVVIgAABAgQIECBAgAABAgQItAoIMFrFlCdAgAABAgQIECBAgAABAgTSBQQY6eQqJECAAAECBAgQIECAAAECBFoFBBitYsoTIECAAAECBAgQIECAAAEC6QICjHRyFRIgQIAAAQIECBAgQIAAAQKtAgKMVjHlCRAgQIAAAQIECBAgQIAAgXQBAUY6uQoJECBAgAABAgQIECBAgACBVgEBRquY8gQIECBAgAABAgQIECBAgEC6gAAjnVyFBAgQIECAAAECBAgQIECAQKuAAKNVTHkCBAgQIECAAAECBAgQIEAgXUCAkU6uQgIECBAgQIAAAQIECBAgQKBVQIDRKqY8AQIECBAgQIAAAQIECBAgkC4gwEgnVyEBAgQIECBAgAABAgQIECDQKiDAaBVTngABAgQIECBAgAABAgQIEEgXEGCkk6uQAAECBAgQIECAAAECBAgQaBUQYLSKKU+AAAECBAgQIECAAAECBAikCwgw0slVSIAAAQIECBAgQIAAAQIECLQKCDBaxZQnQIAAAQIECBAgQIAAAQIE0gUEGOnkKiRAgAABAgQIECBAgAABAgRaBQQYrWLKEyBAgAABAgQIECBAgAABAukCAox0chUSIECAAAECBAgQIECAAAECrQICjFYx5QkQIECAAAECBAgQIECAAIF0AQFGOrkKCRAgQIAAAQIECBAgQIAAgVYBAUarmPIECBAgQIAAAQIECBAgQIBAuoAAI51chQQIECBAgAABAgQIECBAgECrgACjVUx5AgQIECBAgAABAgQIECBAIF1AgJFOrkICBAgQIECAAAECBAgQIECgVUCA0SqmPAECBAgQIECAAAECBAgQIJAuIMBIJ1chAQIECBAgQIAAAQIECBAg0CogwGgVU54AAQIECBAgQIAAAQIECBBIFxBgpJOrkAABAgQIECBAgAABAgQIEGgVEGC0iilPgAABAgQIECBAgAABAgQIpAsIMNLJVUiAAAECBAgQIECAAAECBAi0CggwWsWUJ0CAAAECBAgQIECAAAECBNIFBBjp5CokQIAAAQIECBAgQIAAAQIEWgUEGK1iyhMgQIAAAQIECBAgQIAAAQLpAgKMdHIVEiBAgAABAgQIECBAgAABAq0CAoxWMeUJECBAgAABAgQIECBAgACBdAEBRjq5CgkQIECAAAECBAgQIECAAIFWAQFGq5jyBAgQIECAAAECBAgQIECAQLqAACOdXIUECBAgQIAAAQIECBAgQIBAq4AAo1VMeQIECBAgQIAAAQIECBAgQCBdQICRTq5CAgQIECBAgAABAgQIECBAoFVAgNEqpjwBAgQIECBAgAABAgQIECCQLiDASCdXIQECBAgQIECAAAECBAgQINAqIMBoFVOeAAECBAgQIECAAAECBAgQSBcQYKSTq5AAAQIECBAgQIAAAQIECBBoFRBgtIopT4AAAQIECBAgQIAAAQIECKQLCDDSyVVIgAABAgQIECBAgAABAgQItAoIMFrFlCdAgAABAgQIECBAgAABAgTSBQQY6eQqJECAAAECBAgQIECAAAECBFoFBBitYsoTIECAAAECBAgQIECAAAEC6QICjHRyFRIgQIAAAQIECBAgQIAAAQKtAgKMVjHlCRAgQIAAAQIECBAgQIAAgXQBAUY6uQoJECBAgAABAgQIECBAgACBVgEBRquY8gQIECBAgAABAgQIECBAgEC6gAAjnVyFBAgQIECAAAECBAgQIECAQKuAAKNVTHkCBAgQIECAAAECBAgQIEAgXUCAkU6uQgIECBAgQIAAAQIECBAgQKBVQIDRKqY8AQIECBAgQIAAAQIECBAgkC4gwEgnVyEBAgQIECBAgAABAgQIECDQKiDAaBVTngABAgQIECBAgAABAgQIEEgXEGCkk6uQAAECBAgQIECAAAECBAgQaBUQYLSKKU+AAAECBAgQIECAAAECBAikCwgw0slVSIAAAQIECBAgQIAAAQIECLQKCDBaxZQnQIAAAQIECBAgQIAAAQIE0gUEGOnkKiRAgAABAgQIECBAgAABAgRaBQQYrWLKEyBAgAABAgQIECBAgAABAukCAox0chUSIECAAAECBAgQIECAAAECrQICjFYx5QkQIECAAAECBAgQIECAAIF0AQFGOrkKCRAgQIAAAQIECBAgQIAAgVYBAUarmPIECBAgQIAAAQIECBAgQIBAuoAAI51chQQIECBAgAABAgQIECBAgECrgACjVUx5AgQIECBAgAABAgQIECBAIF1AgJFOrkICBAgQIECAAAECBAgQIECgVUCA0SqmPAECBAgQIECAAAECBAgQIJAuIMBIJ1chAQIECBAgQIAAAQIECBAg0CogwGgVU54AAQIECBAgQIAAAQIECBBIFxBgpJOrkAABAgQIECBAgAABAgQIEGgVEGC0iilPgAABAgQIECBAgAABAgQIpAsIMNLJVUiAAAECBAgQIECAAAECBAi0CggwWsWUJ0CAAAECBAgQIECAAAECBNIFBBjp5CokQIAAAQIECBAgQIAAAQIEWgUEGK1iyhMgQIAAAQIECBAgQIAAAQLpAgKMdHIVEiBAgAABAgQIECBAgAABAq0CAoxWMeUJECBAgAABAgQIECBAgACBdAEBRjq5CgkQIECAAAECBAgQIECAAIFWAQFGq5jyBAgQIECAAAECBAgQIECAQLqAACOdXIUECBAgQIAAAQIECBAgQIBAq4AAo1VMeQIECBAgQIAAAQIECBAgQCBdQICRTq5CAgQIECBAgAABAgQIECBAoFVAgNEqpjwBAgQIECBAgAABAgQIECCQLiDASCdXIQECBAgQIECAAAECBAgQINAqIMBoFVOeAAECBAgQIECAAAECBAgQSBcQYKSTq5AAAQIECBAgQIAAAQIECBBoFRBgtIopT4AAAQIECBAgQIAAAQIECKQLCDDSyVVIgAABAgQIECBAgAABAgQItAoIMFrFlCdAgAABAgQIECBAgAABAgTSBQQY6eQqJECAAAECBAgQIECAAAECBFoFBBitYsoTIECAAAECBAgQIECAAAEC6QICjHRyFRIgQIAAAQIECBAgQIAAAQKtAgKMVjHlCRAgQIAAAQIECBAgQIAAgXQBAUY6uQoJECBAgAABAgQIECBAgACBVgEBRquY8gQIECBAgAABAgQIECBAgEC6gAAjnVyFBAgQIECAAAECBAgQIECAQKuAAKNVTHkCBAgQIECAAAECBAgQIEAgXUCAkU6uQgIECBAgQIAAAQIECBAgQKBVQIDRKqY8AQIECBAgQIAAAQIECBAgkC4gwEgnVyEBAgQIECBAgAABAgQIECDQKiDAaBVTngABAgQIECBAgAABAgQIEEgXEGCkk6uQAAECBAgQIECAAAECBAgQaBUQYLSKKU+AAAECBAgQIECAAAECBAikCwgw0slVSIAAAQIECBAgQIAAAQIECLQKCDBaxZQnQIAAAQIECBAgQIAAAQIE0gUEGOnkKiRAgAABAgQIECBAgAABAgRaBQQYrWLKEyBAgAABAgQIECBAgAABAukCAox0chUSIECAAAECBAgQIECAAAECrQICjFYx5QkQIECAAAECBAgQIECAAIF0AQFGOrkKCRAgQIAAAQIECBAgQIAAgVYBAUarmPIECBAgQIAAAQIECBAgQIBAuoAAI51chQQIECBAgAABAgQIECBAgECrgACjVUx5AgQIECBAgAABAgQIECBAIF1AgJFOrkICBAgQIECAAAECBAgQIECgVUCA0SqmPAECBAgQIECAAAECBAgQIJAuIMBIJ1chAQIECBAgQIAAAQIECBAg0CogwGgVU54AAQIECBAgQIAAAQIECBBIFxBgpJOrkAABAgQIECBAgAABAgQIEGgVEGC0iilPgAABAgQIECBAgAABAgQIpAsIMNLJVUiAAAECBAgQIECAAAECBAi0CggwWsWUJ0CAAAECBAgQIECAAAECBNIFBBjp5CokQIAAAQIECBAgQIAAAQIEWgUEGK1iyhMgQIAAAQIECBAgQIAAAQLpAgKMdHIVEiBAgAABAgQIECBAgAABAq0CAoxWMeUJECBAgAABAgQIECBAgACBdAEBRjq5CgkQIECAAAECBAgQIECAAIFWAQFGq5jyBAgQIECAAAECBAgQIECAQLqAACOdXIUECBAgQIAAAQIECBAgQIBAq4AAo1VMeQIECBAgQIAAAQIECBAgQCBdQICRTq5CAgQIECBAgAABAgQIECBAoFVAgNEqpjwBAgQIECBAgAABAgQIECCQLiDASCdXIQECBAgQIECAAAECBAgQINAqIMBoFVOeAAECBAgQIECAAAECBAgQSBcQYKSTq5AAAQIECBAgQIAAAQIECBBoFRBgtIopT4AAAQIECBAgQIAAAQIECKQLCDDSyVVIgAABAgQIECBAgAABAgQItAoIMFrFlCdAgAABAgQIECBAgAABAgTSBQQY6eQqJECAAAECBAgQIECAAAECBFoFBBitYsoTIECAAAECBAgQIECAAAEC6QICjHRyFRIgQIAAAQIECBAgQIAAAQKtAgKMVjHlCRAgQIAAAQIECBAgQIAAgXQBAUY6uQoJECBAgAABAgQIECBAgACBVgEBRquY8gQIECBAgAABAgQIECBAgEC6gAAjnVyFBAgQIECAAAECBAgQIECAQKuAAKNVTHkCBAgQIECAAAECBAgQIEAgXUCAkU6uQgIECBAgQIAAAQIECBAgQKBVQIDRKqY8AQIECBAgQIAAAQIECBAgkC4gwEgnVyEBAgQIECBAgAABAgQIECDQKiDAaBVTngABAgQIECBAgAABAgQIEEgXEGCkk6uQAAECBAgQIECAAAECBAgQaBUQYLSKKU+AAAECBAgQIECAAAECBAikCwgw0slVSIAAAQIECBAgQIAAAQIECLQKCDBaxZQnQIAAAQIECBAgQIAAAQIE0gUEGOnkKiRAgAABAgQIECBAgAABAgRaBQQYrWLKEyBAgAABAgQIECBAgAABAukCAox0chUSIECAAAECBAgQIECAAAECrQICjFYx5QkQIECAAAECBAgQIECAAIF0AQFGOrkKCRAgQIAAAQIECBAgQIAAgVYBAUarmPIECBAgQIAAAQIECBAgQIBAuoAAI51chQQIECBAgAABAgQIECBAgECrgACjVUx5AgQIECBAgAABAgQIECBAIF1AgJFOrkICBAgQIECAAAECBAgQIECgVUCA0SqmPAECBAgQIECAAAECBAgQIJAuIMBIJ1chAQIECBAgQIAAAQIECBAg0CogwGgVU54AAQIECBAgQIAAAQIECBBIFxBgpJOrkAABAgQIECBAgAABAgQIEGgVEGC0iilPgAABAgQIECBAgAABAgQIpAsIMNLJVUiAAAECBAgQIECAAAECBAi0CggwWsWUJ0CAAAECBAgQIECAAAECBNIFBBjp5CokQIAAAQIECBAgQIAAAQIEWgUEGK1iyhMgQIAAAQIECBAgQIAAAQLpAgKMdHIVEiBAgAABAgQIECBAgAABAq0CAoxWMeUJECBAgAABAgQIECBAgACBdAEBRjq5CgkQIECAAAECBAgQIECAAIFWAQFGq5jyBAgQIECAAAECBAgQIECAQLqAACOdXIUECBAgQIAAAQIECBAgQIBAq4AAo1VMeQIECBAgQIAAAQIECBAgQCBdQICRTq5CAgQIECBAgAABAgQIECBAoFVAgNEqpjwBAgQIECBAgAABAgQIECCQLiDASCdXIQECBAgQIECAAAECBAgQINAqIMBoFVOeAAECBAgQIECAAAECBAgQSBcQYKSTq5AAAQIECBAgQIAAAQIECBBoFRBgtIopT4AAAQIECBAgQIAAAQIECKQLCDDSyVVIgAABAgQIECBAgAABAgQItAoIMFrFlCdAgAABAgQIECBAgAABAgTSBQQY6eQqJECAAAECBAgQIECAAAECBFoFBBitYsoTIECAAAECBAgQIECAAAEC6QICjHRyFRIgQIAAAQIECBAgQIAAAQKtAgKMVjHlCRAgQIAAAQIECBAgQIAAgXQBAUY6uQoJECBAgAABAgQIECBAgACBVgEBRquY8gQIECBAgAABAgQIECBAgEC6gAAjnVyFBAgQIECAAAECBAgQIECAQKuAAKNVTHkCBAgQIECAAAECBAgQIEAgXUCAkU6uQgIECBAgQIAAAQIECBAgQKBVQIDRKqY8AQIECBAgQIAAAQIECBAgkC4gwEgnVyEBAgQIECBAgAABAgQIECDQKiDAaBVTngABAgQIECBAgAABAgQIEEgXEGCkk6uQAAECBAgQIECAAAECBAgQaBUQYLSKKU+AAAECBAgQIECAAAECBAikCwgw0slVSIAAAQIECBAgQIAAAQIECLQKCDBaxZQnQIAAAQIECBAgQIAAAQIE0gUEGOnkKiRAgAABAgQIECBAgAABAgRaBQQYrWLKEyBAgAABAgQIECBAgAABAukCAox0chUSIECAAAECBAgQIECAAAECrQICjFYx5QkQIECAAAECBAgQIECAAIF0AQFGOrkKCRAgQIAAAQIECBAgQIAAgVYBAUarmPIECBAgQIAAAQIECBAgQIBAuoAAI51chQQIECBAgAABAgQIECBAgECrgACjVUx5AgQIECBAgAABAgQIECBAIF1AgJFOrkICBAgQIECAAAECBAgQIECgVUCA0SqmPAECBAgQIECAAAECBAgQIJAuIMBIJ1chAQIECBAgQIAAAQIECBAg0CogwGgVU54AAQIECBAgQIAAAQIECBBIFxBgpJOrkAABAgQIECBAgAABAgQIEGgVEGC0iilPgAABAgQIECBAgAABAgQIpAsIMNLJVUiAAAECBAgQIECAAAECBAi0CggwWsWUJ0CAAAECBAgQIECAAAECBNIFBBjp5CokQIAAAQIECBAgQIAAAQIEWgUEGK1iyhMgQIAAAQIECBAgQIAAAQLpAgKMdHIVEiBAgAABAgQIECBAgAABAq0CAoxWMeUJECBAgAABAgQIECBAgACBdAEBRjq5CgkQIECAAAECBAgQIECAAIFWAQFGq5jyBAgQIECAAAECBAgQIECAQLqAACOdXIUECBAgQIAAAQIECBAgQIBAq4AAo1VMeQIECBAgQIAAAQIECBAgQCBdQICRTq5CAgQIECBAgAABAgQIECBAoFVAgNEqpjwBAgQIECBAgAABAgQIECCQLiDASCdXIQECBAgQIECAAAECBAgQINAqIMBoFVOeAAECBAgQIECAAAECBAgQSBcQYKSTq5AAAQIECBAgQIAAAQIECBBoFRBgtIopT4AAAQIECBAgQIAAAQIECKQLCDDSyVVIgAABAgQIECBAgAABAgQItAoIMFrFlCdAgAABAgQIECBAgAABAgTSBQQY6eQqJECAAAECBAgQIECAAAECBFoFBBitYsoTIECAAAECBAgQIECAAAEC6QICjHRyFRIgQIAAAQIECBAgQIAAAQKtAgKMVjHlCRAgQIAAAQIECBAgQIAAgXQBAUY6uQoJECBAgAABAgQIECBAgACBVgEBRquY8gQIECBAgAABAgQIECBAgEC6gAAjnVyFBAgQIECAAAECBAgQIECAQKuAAKNVTHkCBAgQIECAAAECBAgQIEAgXUCAkU6uQgIECBAgQIAAAQIECBAgQKBVQIDRKqY8AQIECBAgQIAAAQIECBAgkC4gwEgnVyEBAgQIECBAgAABAgQIECDQKiDAaBVTngABAgQIECBAgAABAgQIEEgXEGCkk6uQAAECBAgQIECAAAECBAgQaBUQYLSKKU+AAAECBAgQIECAAAECBAikCwgw0slVSIAAAQIECBAgQIAAAQIECLQKCDBaxZQnQIAAAQIECBAgQIAAAQIE0gUEGOnkKiRAgAABAgQIECBAgAABAgRaBQQYrWLKEyBAgAABAgQIECBAgAABAukCAox0chUSIECAAAECBAgQIECAAAECrQICjFYx5QkQIECAAAECBAgQIECAAIF0AQFGOrkKCRAgQIAAAQIECBAgQIAAgVYBAUarmPIECBAgQIAAAQIECBAgQIBAuoAAI51chQQIECBAgAABAgQIECBAgECrgACjVUx5AgQIECBAgAABAgQIECBAIF1AgJFOrkICBAgQIECAAAECBAgQIECgVUCA0SqmPAECBAgQIECAAAECBAgQIJAuIMBIJ1chAQIECBAgQIAAAQIECBAg0CogwGgVU54AAQIECBAgQIAAAQIECBBIFxBgpJOrkAABAgQIECBAgAABAgQIEGgVEGC0iilPgAABAgQIECBAgAABAgQIpAsIMNLJVUiAAAECBAgQIECAAAECBAi0CggwWsWUJ0CAAAECBAgQIECAAAECBNIFBBjp5CokQIAAAQIECBAgQIAAAQIEWgUEGK1iyhMgQIAAAQIECBAgQIAAAQLpAgKMdHIVEiBAgAABAgQIECBAgAABAq0CAoxWMeUJECBAgAABAgQIECBAgACBdAEBRjq5CgkQIECAAAECBAgQIECAAIFWAQFGq5jyBAgQIECAAAECBAgQIECAQLqAACOdXIUECBAgQIAAAQIECBAgQIBAq4AAo1VMeQIECBAgQIAAAQIECBAgQCBdQICRTq5CAgQIECBAgAABAgQIECBAoFVAgNEqpjwBAgQIECBAgAABAgQIECCQLiDASCdXIQECBAgQIECAAAECBAgQINAqIMBoFVOeAAECBAgQIECAAAECBAgQSBcQYKSTq5AAAQIECBAgQIAAAQIECBBoFRBgtIopT4AAAQIECBAgQIAAAQIECKQLCDDSyVVIgAABAgQIECBAgAABAgQItAoIMFrFlCdAgAABAgQIECBAgAABAgTSBQQY6eQqJECAAAECBAgQIECAAAECBFoFBBitYsoTIECAAAECBAgQIECAAAEC6QICjHRyFRIgQIAAAQIECBAgQIAAAQKtAgKMVjHlCRAgQIAAAQIECBAgQIAAgXQBAUY6uQoJECBAgAABAgQIECBAgACBVgEBRquY8gQIECBAgAABAgQIECBAgEC6gAAjnVyFBAgQIECAAAECBAgQIECAQKuAAKNVTHkCBAgQIECAAAECBAgQIEAgXUCAkU6uQgIECBAgQIAAAQIECBAgQKBVQIDRKqY8AQIECBAgQIAAAQIECBAgkC4gwEgnVyEBAgQIECBAgAABAgQIECDQKiDAaBVTngABAgQIECBAgAABAgQIEEgXEGCkk6uQAAECBAgQIECAAAECBAgQaBUQYLSKKU+AAAECBAgQIECAAAECBAikCwgw0slVSIAAAQIECBAgQIAAAQIECLQKCDBaxZQnQIAAAQIECBAgQIAAAQIE0gUEGOnkKiRAgAABAgQIECBAgAABAgRaBQQYrWLKEyBAgAABAgQIECBAgAABAukCAox0chUSIECAAAECBAgQIECAAAECrQICjFYx5QkQIECAAAECBAgQIECAAIF0AQFGOrkKCRAgQIAAAQIECBAgQIAAgVYBAUarmPIECBAgQIAAAQIECBAgQIBAuoAAI51chQQIECBAgAABAgQIECBAgECrgACjVUx5AgQIECBAgAABAgQIECBAIF1AgJFOrkICBAgQIECAAAECBAgQIECgVUCA0SqmPAECBAgQIECAAAECBAgQIJAuIMBIJ1chAQIECBAgQIAAAQIECBAg0CogwGgVU54AAQIECBAgQIAAAQIECBBIFxBgpJOrkAABAgQIECBAgAABAgQIEGgVEGC0iilPgAABAgQIECBAgAABAgQIpAsIMNLJVUiAAAECBAgQIECAAAECBAi0CggwWsWUJ0CAAAECBAgQIECAAAECBNIFBBjp5CokQIAAAQIECBAgQIAAAQIEWgUEGK1iyhMgQIAAAQIECBAgQIAAAQLpAgKMdHIVEiBAgAABAgQIECBAgAABAq0CAoxWMeUJECBAgAABAgQIECBAgACBdAEBRjq5CgkQIECAAAECBAgQIECAAIFWAQFGq5jyBAgQIECAAAECBAgQIECAQLqAACOdXIUECBAgQIAAAQIECBAgQIBAq4AAo1VMeQIECBAgQIAAAQIECBAgQCBdQICRTq5CAgQIECBAgAABAgQIECBAoFVAgNEqpjwBAgQIECBAgAABAgQIECCQLiDASCdXIQECBAgQIECAAAECBAgQINAqIMBoFVOeAAECBAgQIECAAAECBAgQSBcQYKSTq5AAAQIECBAgQIAAAQIECBBoFRBgtIopT4AAAQIECBAgQIAAAQIECKQLCDDSyVVIgAABAgQIECBAgAABAgQItAoIMFrFlCdAgAABAgQIECBAgAABAgTSBQQY6eQqJECAAAECBAgQIECAAAECBFoFBBitYsoTIECAAAECBAgQIECAAAEC6QICjHRyFRIgQIAAAQIECBAgQIAAAQKtAgKMVjHlCRAgQIAAAQIECBAgQIAAgXQBAUY6uQoJECBAgAABAgQIECBAgACBVgEBRquY8gQIECBAgAABAgQIECBAgEC6gAAjnVyFBAgQIECAAAECBAgQIECAQKuAAKNVTHkCBAgQIECAAAECBAgQIEAgXUCAkU6uQgIECBAgQIAAAQIECBAgQKBVQIDRKqY8AQIECBAgQIAAAQIECBAgkC4gwEgnVyEBAgQIECBAgAABAgQIECDQKiDAaBVTngABAgQIECBAgAABAgQIEEgXEGCkk6uQAAECBAgQIECAAAECBAgQaBUQYLSKKU+AAAECBAgQIECAAAECBAguT2NLAAAgAElEQVSkCwgw0slVSIAAAQIECBAgQIAAAQIECLQKCDBaxZQnQIAAAQIECBAgQIAAAQIE0gUEGOnkKiRAgAABAgQIECBAgAABAgRaBQQYrWLKEyBAgAABAgQIECBAgAABAukCAox0chUSIECAAAECBAgQIECAAAECrQICjFYx5QkQIECAAAECBAgQIECAAIF0AQFGOrkKCRAgQIAAAQIECBAgQIAAgVYBAUarmPIECBAgQIAAAQIECBAgQIBAuoAAI51chQQIECBAgAABAgQIECBAgECrgACjVUx5AgQIECBAgAABAgQIECBAIF1AgJFOrkICBAgQIECAAAECBAgQIECgVUCA0SqmPAECBAgQIECAAAECBAgQIJAuIMBIJ1chAQIECBAgQIAAAQIECBAg0CogwGgVU54AAQIECBAgQIAAAQIECBBIFxBgpJOrkAABAgQIECBAgAABAgQIEGgVEGC0iilPgAABAgQIECBAgAABAgQIpAsIMNLJVUiAAAECBAgQIECAAAECBAi0CggwWsWUJ0CAAAECBAgQIECAAAECBNIFBBjp5CokQIAAAQIECBAgQIAAAQIEWgUEGK1iyhMgQIAAAQIECBAgQIAAAQLpAgKMdHIVEiBAgAABAgQIECBAgAABAq0CAoxWMeUJECBAgAABAgQIECBAgACBdAEBRjq5CgkQIECAAAECBAgQIECAAIFWAQFGq5jyBAgQIECAAAECBAgQIECAQLqAACOdXIUECBAgQIAAAQIECBAgQIBAq4AAo1VMeQIECBAgQIAAAQIECBAgQCBdQICRTq5CAgQIECBAgAABAgQIECBAoFVAgNEqpjwBAgQIECBAgAABAgQIECCQLiDASCdXIQECBAgQIECAAAECBAgQINAqIMBoFVOeAAECBAgQIECAAAECBAgQSBcQYKSTq5AAAQIECBAgQIAAAQIECBBoFRBgtIopT4AAAQIECBAgQIAAAQIECKQLCDDSyVVIgAABAgQIECBAgAABAgQItAoIMFrFlCdAgAABAgQIECBAgAABAgTSBQQY6eQqJECAAAECBAgQIECAAAECBFoFBBitYsoTIECAAAECBAgQIECAAAEC6QICjHRyFRIgQIAAAQIECBAgQIAAAQKtAgKMVjHlCRAgQIAAAQIECBAgQIAAgXQBAUY6uQoJECBAgAABAgQIECBAgACBVgEBRquY8gQIECBAgAABAgQIECBAgEC6gAAjnVyFBAgQIECAAAECBAgQIECAQKuAAKNVTHkCBAgQIECAAAECBAgQIEAgXUCAkU6uQgIECBAgQIAAAQIECBAgQKBVQIDRKqY8AQIECBAgQIAAAQIECBAgkC4gwEgnVyEBAgQIECBAgAABAgQIECDQKiDAaBVTngABAgQIECBAgAABAgQIEEgXEGCkk6uQAAECBAgQIECAAAECBAgQaBUQYLSKKU+AAAECBAgQIECAAAECBAikCwgw0slVSIAAAQIECBAgQIAAAQIECLQKCDBaxZQnQIAAAQIECBAgQIAAAQIE0gUEGOnkKiRAgAABAgQIECBAgAABAgRaBQQYrWLKEyBAgAABAgQIECBAgAABAukCAox0chUSIECAAAECBAgQIECAAAECrQICjFYx5QkQIECAAAECBAgQIECAAIF0AQFGOrkKCRAgQIAAAQIECBAgQIAAgVYBAUarmPIECBAgQIAAAQIECBAgQIBAuoAAI51chQQIECBAgAABAgQIECBAgECrgACjVUx5AgQIECBAgAABAgQIECBAIF1AgJFOrkICBAgQIECAAAECBAgQIECgVUCA0SqmPAECBAgQIECAAAECBAgQIJAuIMBIJ1chAQIECBAgQIAAAQIECBAg0CogwGgVU54AAQIECBAgQIAAAQIECBBIFxBgpJOrkAABAgQIECBAgAABAgQIEGgVEGC0iilPgAABAgQIECBAgAABAgQIpAsIMNLJVUiAAAECBAgQIECAAAECBAi0CggwWsWUJ0CAAAECBAgQIECAAAECBNIFBBjp5CokQIAAAQIECBAgQIAAAQIEWgUEGK1iyhMgQIAAAQIECBAgQIAAAQLpAgKMdHIVEiBAgAABAgQIECBAgAABAq0CAoxWMeUJECBAgAABAgQIECBAgACBdAEBRjq5CgkQIECAAAECBAgQIECAAIFWAQFGq5jyBAgQIECAAAECBAgQIECAQLqAACOdXIUECBAgQIAAAQIECBAgQIBAq4AAo1VMeQIECBAgQIAAAQIECBAgQCBdQICRTq5CAgQIECBAgAABAgQIECBAoFVAgNEqpjwBAgQIECBAgAABAgQIECCQLiDASCdXIQECBAgQIECAAAECBAgQINAqIMBoFVOeAAECBAgQIECAAAECBAgQSBcQYKSTq5AAAQIECBAgQIAAAQIECBBoFRBgtIopT4AAAQIECBAgQIAAAQIECKQLCDDSyVVIgAABAgQIECBAgAABAgQItAoIMFrFlCdAgAABAgQIECBAgAABAgTSBQQY6eQqJECAAAECBAgQIECAAAECBFoFBBitYsoTIECAAAECBAgQIECAAAEC6QICjHRyFRIgQIAAAQIECBAgQIAAAQKtAgKMVjHlCRAgQIAAAQIECBAgQIAAgXQBAUY6uQoJECBAgAABAgQIECBAgACBVgEBRquY8gQIECBAgAABAgQIECBAgEC6gAAjnVyFBAgQIECAAAECBAgQIECAQKuAAKNVTHkCBAgQIECAAAECBAgQIEAgXUCAkU6uQgIECBAgQIAAAQIECBAgQKBVQIDRKqY8AQIECBAgQIAAAQIECBAgkC4gwEgnVyEBAgQIECBAgAABAgQIECDQKiDAaBVTngABAgQIECBAgAABAgQIEEgXEGCkk6uQAAECBAgQIECAAAECBAgQaBUQYLSKKU+AAAECBAgQIECAAAECBAikCwgw0slVSIAAAQIECBAgQIAAAQIECLQKCDBaxZQnQIAAAQIECBAgQIAAAQIE0gUEGOnkKiRAgAABAgQI/P/27gNanqugH/hwFJQoJQqKQDAkiMgBlN4RkESlJQSB0JEaAgQBiaFKCVJiRZSAEkoooUepJgKi0ovSokEDKgkgRXoX8z/fOdz3n9/+dt97d/e9+2Z3P3uOJ/h7d/fe+dzZnbnfuXOHAAECBAgQIFArIMCoFVOeAAECBAgQIECAAAECBAgQaC4gwGhOrkICBAgQIECAAAECBAgQIECgVkCAUSumPAECBAgQIECAAAECBAgQINBcQIDRnFyFBAgQIECAAAECBAgQIECAQK2AAKNWTHkCBAgQIECAAAECBAgQIECguYAAozm5CgkQIECAAAECBAgQIECAAIFaAQFGrZjyBAgQIECAAAECBAgQIECAQHMBAUZzchUSIECAAAECBAgQIECAAAECtQICjFox5QkQIECAAAECBAgQIECAAIHmAgKM5uQqJECAAAECBAgQIECAAAECBGoFBBi1YsoTIECAAAECBAgQIECAAAECzQUEGM3JVUiAAAECBAgQIECAAAECBAjUCggwasWUJ0CAAAECBAgQIECAAAECBJoLCDCak6uQAAECBAgQIECAAAECBAgQqBUQYNSKKU+AAAECBAgQIECAAAECBAg0FxBgNCdXIQECBAgQIECAAAECBAgQIFArIMCoFVOeAAECBAgQIECAAAECBAgQaC4gwGhOrkICBAgQIECAAAECBAgQIECgVkCAUSumPAECBAgQIECAAAECBAgQINBcQIDRnFyFBAgQIECAAAECBAgQIECAQK2AAKNWTHkCBAgQIECAAAECBAgQIECguYAAozm5CgkQIECAAAECBAgQIECAAIFaAQFGrZjyBAgQIECAAAECBAgQIECAQHMBAUZzchUSIECAAAECBAgQIECAAAECtQICjFox5QkQIECAAAECBAgQIECAAIHmAgKM5uQqJECAAAECBAgQIECAAAECBGoFBBi1YsoTIECAAAECBAgQIECAAAECzQUEGM3JVUiAAAECBAgQIECAAAECBAjUCggwasWUJ0CAAAECBAgQIECAAAECBJoLCDCak6uQAAECBAgQIECAAAECBAgQqBUQYNSKKU+AAAECBAgQIECAAAECBAg0FxBgNCdXIQECBAgQIECAAAECBAgQIFArIMCoFVOeAAECBAgQIECAAAECBAgQaC4gwGhOrkICBAgQIECAAAECBAgQIECgVkCAUSumPAECBAgQIECAAAECBAgQINBcQIDRnFyFBAgQIECAAAECBAgQIECAQK2AAKNWTHkCBAgQIECAAAECBAgQIECguYAAozm5CgkQIECAAAECBAgQIECAAIFaAQFGrZjyBAgQIECAAAECBAgQIECAQHMBAUZzchUSIECAAAECBAgQIECAAAECtQICjFox5QkQIECAAAECBAgQIECAAIHmAgKM5uQqJECAAAECBAgQIECAAAECBGoFBBi1YsoTIECAAAECBAgQIECAAAECzQUEGM3JVUiAAAECBAgQIECAAAECBAjUCggwasWUJ0CAAAECBAgQIECAAAECBJoLCDCak6uQAAECBAgQIECAAAECBAgQqBUQYNSKKU+AAAECBAgQIECAAAECBAg0FxBgNCdXIQECBAgQIECAAAECBAgQIFArIMCoFVOeAAECBAgQIECAAAECBAgQaC4gwGhOrkICBAgQIECAAAECBAgQIECgVkCAUSumPAECBAgQIECAAAECBAgQINBcQIDRnFyFBAgQIECAAAECBAgQIECAQK2AAKNWTHkCBAgQIECAAAECBAgQIECguYAAozm5CgkQIECAAAECBAgQIECAAIFaAQFGrZjyBAgQIECAAAECBAgQIECAQHMBAUZzchUSIECAAAECBAgQIECAAAECtQICjFox5QkQIECAAAECBAgQIECAAIHmAgKM5uQqJECAAAECBAgQIECAAAECBGoFBBi1YsoTIECAAAECBAgQIECAAAECzQUEGM3JVUiAAAECBAgQIECAAAECBAjUCggwasWUJ0CAAAECBAgQIECAAAECBJoLCDCak6uQAAECBAgQIECAAAECBAgQqBUQYNSKKU+AAAECBAgQIECAAAECBAg0FxBgNCdXIQECBAgQIECAAAECBAgQIFArIMCoFVOeAAECBAgQIECAAAECBAgQaC4gwGhOrkICBAgQIECAAAECBAgQIECgVkCAUSumPAECBAgQIECAAAECBAgQINBcQIDRnFyFBAgQIECAAAECBAgQIECAQK2AAKNWTHkCBAgQIECAAAECBAgQIECguYAAozm5CgkQIECAAAECBAgQIECAAIFaAQFGrZjyBAgQIECAAAECBAgQIECAQHMBAUZzchUSIECAAAECBAgQIECAAAECtQICjFox5QkQIECAAAECBAgQIECAAIHmAgKM5uQqJECAAAECBAgQIECAAAECBGoFBBi1YsoTIECAAAECBAgQIECAAAECzQUEGM3JVUiAAAECBAgQIECAAAECBAjUCggwasWUJ0CAAAECBAgQIECAAAECBJoLCDCak6uQAAECBAgQIECAAAECBAgQqBUQYNSKKU+AAAECBAgQIECAAAECBAg0FxBgNCdXIQECBAgQIECAAAECBAgQIFArIMCoFVOeAAECBAgQIECAAAECBAgQaC4gwGhOrkICBAgQIECAAAECBAgQIECgVkCAUSumPAECBAgQIECAAAECBAgQINBcQIDRnFyFBAgQIECAAAECBAgQIECAQK2AAKNWTHkCBAgQIECAAAECBAgQIECguYAAozm5CgkQIECAAAECBAgQIECAAIFaAQFGrZjyBAgQIECAAAECBAgQIECAQHMBAUZzchUSIECAAAECBAgQIECAAAECtQICjFox5QkQIECAAAECBAgQIECAAIHmAgKM5uQqJECAAAECBAgQIECAAAECBGoFBBi1YsoTIECAAAECBAgQIECAAAECzQUEGM3JVUiAAAECBAgQIECAAAECBAjUCggwasWUJ0CAAAECBAgQIECAAAECBJoLCDCak6uQAAECBAgQIECAAAECBAgQqBUQYNSKKU+AAAECBAgQIECAAAECBAg0FxBgNCdXIQECBAgQIECAAAECBAgQIFArIMCoFVOeAAECBAgQIECAAAECBAgQaC4gwGhOrkICBAgQIECAAAECBAgQIECgVkCAUSumPAECBAgQIECAAAECBAgQINBcQIDRnFyFBAgQIECAAAECBAgQIECAQK2AAKNWTHkCBAgQIECAAAECBAgQIECguYAAozm5CgkQIECAAAECBAgQIECAAIFaAQFGrZjyBAgQIECAAAECBAgQIECAQHMBAUZzchUSIECAAAECBAgQIECAAAECtQICjFox5QkQIECAAAECBAgQIECAAIHmAgKM5uQqJECAAAECBAgQIECAAAECBGoFBBi1YsoTIECAAAECBAgQIECAAAECzQUEGM3JVUiAAAECBAgQIECAAAECBAjUCggwasWUJ0CAAAECBAgQIECAAAECBJoLCDCak6uQAAECBAgQIECAAAECBAgQqBUQYNSKKU+AAAECBAgQIECAAAECBAg0FxBgNCdXIQECBAgQIECAAAECBAgQIFArIMCoFVOeAAECBAgQIECAAAECBAgQaC4gwGhOrkICBAgQIECAAAECBAgQIECgVkCAUSumPAECBAgQIECAAAECBAgQINBcQIDRnFyFBAgQIECAAAECBAgQIECAQK2AAKNWTHkCBAgQIECAAAECBAgQIECguYAAozm5CgkQIECAAAECBAgQIECAAIFaAQFGrZjyBAgQIECAAAECBAgQIECAQHMBAUZzchUSIECAAAECBAgQIECAAAECtQICjFox5QkQIECAAAECBAgQIECAAIHmAgKM5uQqJECAAAECBAgQIECAAAECBGoFBBi1YsoTIECAAAECBAgQIECAAAECzQUEGM3JVUiAAAECBAgQIECAAAECBAjUCggwasWUJ0CAAAECBAgQIECAAAECBJoLCDCak6uQAAECBAgQIECAAAECBAgQqBUQYNSKKU+AAAECBAgQIECAAAECBAg0FxBgNCdXIQECBAgQIECAAAECBAgQIFArIMCoFVOeAAECBAgQIECAAAECBAgQaC4gwGhOrkICBAgQIECAAAECBAgQIECgVkCAUSumPAECBAgQIECAAAECBAgQINBcQIDRnFyFBAgQIECAAAECBAgQIECAQK2AAKNWTHkCBAgQIECAAAECBAgQIECguYAAozm5CgkQIECAAAECBAgQIECAAIFaAQFGrZjyBAgQIECAAAECBAgQIECAQHMBAUZzchUSIECAAAECBAgQIECAAAECtQICjFox5QkQIECAAAECBAgQIECAAIHmAgKM5uQqJECAAAECBAgQIECAAAECBGoFBBi1YsoTIECAAAECBAgQIECAAAECzQUEGM3JVUiAAAECBAgQIECAAAECBAjUCggwasWUJ0CAAAECBAgQIECAAAECBJoLCDCak6uQAAECBAgQIECAAAECBAgQqBUQYNSKKU+AAAECBAgQIECAAAECBAg0FxBgNCdXIQECBAgQIECAAAECBAgQIFArIMCoFVOeAAECBAgQIECAAAECBAgQaC4gwGhOrkICBAgQIECAAAECBAgQIECgVkCAUSumPAECBAgQIECAAAECBAgQINBcQIDRnFyFBAgQIECAAAECBAgQIECAQK2AAKNWTHkCBAgQIECAAAECBAgQIECguYAAozm5CgkQIECAAAECBAgQIECAAIFaAQFGrZjyBAgQIECAAAECBAgQIECAQHMBAUZzchUSIECAAAECBAgQIECAAAECtQICjFox5QkQIECAAAECBAgQIECAAIHmAgKM5uQqJECAAAECBAgQIECAAAECBGoFBBi1YsoTIECAAAECBAgQIECAAAECzQUEGM3JVUiAAAECBAgQIECAAAECBAjUCggwasWUJ0CAAAECBAgQIECAAAECBJoLCDCak6uQAAECBAgQIECAAAECBAgQqBUQYNSKKU+AAAECBAgQIECAAAECBAg0FxBgNCdXIQECBAgQIECAAAECBAgQIFArIMCoFVOeAAECBAgQIECAAAECBAgQaC4gwGhOrkICBAgQIECAAAECBAgQIECgVkCAUSumPAECBAgQIECAAAECBAgQINBcQIDRnFyFBAgQIECAAAECBAgQIECAQK2AAKNWTHkCBAgQIECAAAECBAgQIECguYAAozm5CgkQIECAAAECBAgQIECAAIFaAQFGrZjyBAgQIECAAAECBAgQIECAQHMBAUZzchUSIECAAAECBAgQIECAAAECtQICjFox5QkQIECAAAECBAgQIECAAIHmAgKM5uQqJECAAAECBAgQIECAAAECBGoFBBi1YsoTIECAAAECBAgQIECAAAECzQUEGM3JVUiAAAECBAgQIECAAAECBAjUCggwasWUJ0CAAAECBAgQIECAAAECBJoLCDCak6uQAAECBAgQIECAAAECBAgQqBUQYNSKKU+AAAECBAgQIECAAAECBAg0FxBgNCdXIQECBAgQIECAAAECBAgQIFArIMCoFVOeAAECBAgQIECAAAECBAgQaC4gwGhOrkICBAgQIECAAAECBAgQIECgVkCAUSumPAECBAgQIECAAAECBAgQINBcQIDRnFyFBAgQIECAAAECBAgQIECAQK2AAKNWTHkCBAgQIECAAAECBAgQIECguYAAozm5CgkQIECAAAECBAgQIECAAIFaAQFGrZjyBAgQIECAAAECBAgQIECAQHMBAUZzchUSIECAAAECBAgQIECAAAECtQICjFox5QkQIECAAAECBAgQIECAAIHmAgKM5uQqJECAAAECBAgQIECAAAECBGoFBBi1YsoTIECAAAECBAgQIECAAAECzQUEGM3JVUiAAAECBAgQIECAAAECBAjUCggwasWUJ0CAAAECBAgQIECAAAECBJoLCDCak6uQAAECBAgQIECAAAECBAgQqBUQYNSKKU+AAAECBAgQIECAAAECBAg0FxBgNCdXIQECBAgQIECAAAECBAgQIFArIMCoFVOeAAECBAgQIECAAAECBAgQaC4gwGhOrkICBAgQIECAAAECBAgQIECgVkCAUSumPAECBAgQIECAAAECBAgQINBcQIDRnFyFBAgQIECAAAECBAgQIECAQK2AAKNWTHkCBAgQIECAAAECBAgQIECguYAAozm5CgkQIECAAAECBAgQIECAAIFaAQFGrZjyBAgQIECAAAECBAgQIECAQHMBAUZzchUSIECAAAECBAgQIECAAAECtQICjFox5QkQIECAAAECBAgQIECAAIHmAgKM5uQqJECAAAECBAgQIECAAAECBGoFBBi1YsoTIECAAAECBAgQIECAAAECzQUEGM3JVUiAAAECBAgQIECAAAECBAjUCggwasWUJ0CAAAECBAgQIECAAAECBJoLCDCak6uQAAECBAgQIECAAAECBAgQqBUQYNSKKU+AAAECBAgQIECAAAECBAg0FxBgNCdXIQECBAgQIECAAAECBAgQIFArIMCoFVOeAAECBAgQIECAAAECBAgQaC4gwGhOrkICBAgQIECAAAECBAgQIECgVkCAUSumPAECBAgQIECAAAECBAgQINBcQIDRnFyFBAgQIECAAAECBAgQIECAQK2AAKNWTHkCBAgQIECAAAECBAgQIECguYAAozm5CgkQIECAAAECBAgQIECAAIFaAQFGrZjyBAgQIECAAAECBAgQIECAQHMBAUZzchUSIECAAAECBAgQIECAAAECtQICjFox5QkQIECAAAECBAgQIECAAIHmAgKM5uQqJECAAAECBAgQIECAAAECBGoFBBi1YsoTIECAAAECBAgQIECAAAECzQUEGM3JVUiAAAECBAgQIECAAAECBAjUCuwTYNS+WXkCBAgQIECAAAECBAgQIECAQEOBC1yg67rzU+H55/f/8SJAYMkEkkb6/i5Zp2kuAQIECBAg0FzAOVNzchUS2DGB/WZgGADtmK0PItBUwMG4KbfKCBAgQIAAgSUVcM60pB2n2QS6rhNg2A0IrIiAg/GKdKTNIECAAAECBHZVwDnTrvL6cAK7KiDA2FVeH06gnYCDcTtrNREgQIAAAQLLK+CcaXn7TssJCDDsAwRWRMDBeEU60mYQIECAAAECuyrgnGlXeX04gV0VEGDsKq8PJ9BOwMG4nbWaCBAgQIAAgeUVcM60vH2n5QQEGPYBAisi4GC8Ih1pMwgQIECAAIFdFXDOtKu8PpzArgoIMHaV14cTaCfgYNzOWk0ECBAgQIDA8go4Z1revtNyAgIM+wCBFRFwMF6RjrQZBAgQIECAwK4KOGfaVV4fTmBXBbYdYHzqU5/qbn/723fXvOY1u2c/+9n7NOqkk07q3vnOd3YveMELuotd7GL9377yla9097rXvbrTTz99o+wxxxyzz3vLZ77vfe/b5/MOPfTQ7tRTT+2uf/3rz/ys4Rte/epXd0cdddSuQvlwAmMX2M7B+IEPfGB38sknT92U8r37zGc+0z3taU/r8r0699xzu7vf/e7dOeecM/U9+U6nbL7rKTftezjre54PnPyuj91Y+wgQIECAAIHlF5h2zpTxzHOe85x9xiDZ0nIec8IJJ/TnOSn3iU98Yr/x0LRyr3zlK/vzqYMOOmg/tHxO+ftFL3rR/cZN5Q3Dcc5rXvOafjw27XXkkUf2Y7GvfvWrfZnJ8VXeMzkWW/6etAXrKFAdYOTLMBkYTAYY73rXu/rBzGGHHbbPlzuDpw984AMbX+R80e9973t3T3rSkzbCinRCvpzHH3/8xg9ICUNmDZDWseNsM4FJge0EGMP35HuWoHAYPJbvXwkwhgfcWd/Drb6fs77nepAAAQIECBAgsBcCswKMjD9KECGrxA4AACAASURBVFAuyi4SYLziFa/ornSlK3XPetazNi7ylnOthAzXvva1+3FRCTAmxzqTY6JZ525Dw1nnXWU77nCHO3SPfOQj94JdnQR2RKAqwEjYcKlLXao7++yz90kThwFGWpWrsTe4wQ2mfjkSYuSVWRybDWymfeZWAca0mSA7ouRDCCyBwDIHGCUEmfW7sQT8mkiAAAECBAgsicCsACMzys8777xuOMhfJMDI52XsdI973GOfi7VlPFQu7M4KMCbHSosEGOkaY6Ul2UE1c1OB6gAjiV3Ch3wZy60kwy/DWWed1R133HHdM5/5zH2+qKUVmZ3x+Mc/vjvllFP6f5o2AyP/Piw360utbwkQ+P8Cyxxg6EcCBAgQIECAQCuBWQFGbg3JDPLhTPBFA4zcdvLZz35248JuPi9jpcMPP7x7/vOfv+UMjDPPPHNjzCXAaLWHqGfMAtUBRm73yCuzIZ7xjGds3AtW1sB4y1vesnH//LT7vYZJ4mUve9mZAcaw3JWvfOWZ94WVqVfT6hozvLYR2GmBMQcYs+7FnJymudMmPo8AAQIECBAgMCmwWYCRC7SZIZHQYbimxDxrYGR8dOKJJ/a3kOT23NyWkhAioUSCknLL7mZrYAzPlTZbAyPjslxodguJ/X3VBeYKMLK45nDhmdNOO21jEc/dDDC2uoVk1TvL9hHYTGDMAcasmVZ6lAABAgQIECDQWmCrAGO4XsTRRx/dL4o5b4CREOTJT35y/xkZQyUcSXiR12SAMTnWKesKlovG252BMevCUQk5Wnurj8BOCswdYJR71nMrySGHHLIRYLiFZCe7x2cR2L6AAGP7VkoSIECAAAEC6yuwVYARmbKAZgb9CRoWCTBygTezLh796Edv3GqfByNsFWCkHcP1A7cbYExeOJp8kML69rwtXwWBuQOMbHxJBQ8++ODuIhe5SD/NKq+9WsRzFTrENhCYV0CAMa+c9xEgQIAAAQLrJLCdAKOEB+9///u7L33pSxu3zs8KETIuGq4DOFwjMI82LetefPjDH+7XtMjnbDfAyMXi3B4yb4BRLjxnmyafPrdO/W5bV0NgoQAjBPlyTj5yyGNUV2PnsBXLJSDAWK7+0loCBAgQIEBgbwS2G2CUW0kyWyKPO82CnLMeRzpcNyNrXUw+8SN/P/nkkzc+ZzsBxmQoMm+AEeVZ47O96QG1EphfYOEAY1aiV/799NNP32jdMcccs7GKbv5x+KMw3ITJhTmnfdawfPlcjwaaf0fwzuUX2OsAY/hdL5o52Of7POtezJTL1Mz73//+m87cWv7esQUECBAgQIDAWAS2G2CkvWXhzBJg5N+2M86ZHJcMA4s8fGBagDHrXCrBybAt0xwPPfTQ7tRTT+02e0hC2RZrYYxlT9SOeQS2HWDM8+HeQ4BAO4HaAKNdy9REgAABAgQIEBiPgHOm8fSFlhCoFRBg1IopT2CkAg7GI+0YzSJAgAABAgRGJeCcaVTdoTEEqgQEGFVcChMYr4CD8Xj7RssIECBAgACB8Qg4ZxpPX2gJgVoBAUatmPIERirgYDzSjtEsAgQIECBAYFQCzplG1R0aQ6BKQIBRxaUwgfEKOBiPt2+0jAABAgQIEBiPgHOm8fSFlhCoFRBg1IopT2CkAg7GI+0YzSJAgAABAgRGJeCcaVTdoTEEqgQEGFVcChMYr4CD8Xj7RssIECBAgACB8Qg4ZxpPX2gJgVoBAUatmPIERirgYDzSjtEsAgQIECBAYFQCzplG1R0aQ6BKQIBRxaUwgfEKOBiPt2+0jAABAgQIEBiPgHOm8fSFlhCoFRBg1IopT2CkAg7GI+0YzSJAgAABAgRGJeCcaVTdoTEEqgQEGFVcChMYr4CD8Xj7RssIECBAgACB8Qg4ZxpPX2gJgVoBAUatmPIERirgYDzSjtEsAgQIECBAYFQCzplG1R0aQ6BKQIBRxaUwgfEKOBiPt2+0jAABAgQIEBiPgHOm8fSFlhCoFRBg1IopT2CkAg7GI+0YzSJAgAABAgRGJeCcaVTdoTEEqgQEGFVcChMYr4CD8Xj7RssIECBAgACB8Qg4ZxpPX2gJgVoBAUatmPIERirgYDzSjtEsAgQIECBAYFQCzplG1R0aQ6BKQIBRxaUwgfEKOBiPt2+0jAABAgQIEBiPgHOm8fSFlhCoFRBg1IopT2CkAg7GI+0YzSJAgAABAgRGJeCcaVTdoTEEqgQEGFVcChMYr4CD8Xj7RssIECBAgACB8Qg4ZxpPX2gJgVoBAUatmPIERirgYDzSjtEsAgQIECBAYFQCzplG1R0aQ6BKQIBRxaUwgfEKOBiPt2+0jAABAgQIEBiPgHOm8fSFlhCoFRBg1IopT2CkAg7GI+2YETTrNa95TXf729++O+aYY7pnP/vZI2jRajThpJNO6o4//vje9dGPfnRv/L73va979atf3R111FHdV77yle5e97pXd/rpp0/d4B//8R/vrnjFK3aHH354d+yxx3YHHXTQasDYCgJ7LPCpT32q/z7+z//8T3fqqad2//iP/9h/V4888sjuBS94QXexi11sj1uo+r0WcM601z2gfgLzCwgw5rfzTgKjEnAwHlV3jKoxAozd6Y6aAOPKV75yd8ABB+zTkO9///vdJz7xiT7ouNa1rtWdfPLJ3TWvec3daaxPJbBGAgKMNersOTfVOdOccN5GYAQCAowRdMJONeGDH/xgd9e73rX713/91+5P//RPuwc/+MEzPzonzq94xSv6q7H/9E//1P3QD/1Qd6Mb3aj7rd/6re5XfuVXuh/sGDvVNJ/TQMDBuAHyklRx/vnndx/4wAf6AfG73vWu7qyzztpoea7yX/WqV+2OPvrofpbAj/3Yjy3JVo2vmcMA47GPfWx3hzvcofeeNgOj/NvkVnz+85/vZ3AkZLrvfe/b/dmf/Vl3oQtdaHwbq0UElkhgMsB497vf3T384Q83A2OJ+nC3m+qcabeFfT6B3RMQYOyebfNPzsn0M57xjO7CF75wP0DJtMmf+Imf2K8d3/3ud/vpzs95znO6n/qpn+puetOb9mX+7u/+rvvc5z7X/e7v/m73iEc8QojRvAcXq9DBeDG/VXn3V7/61e5Rj3pU96IXvagPJq9xjWt0F7/4xbvXvva13fWud73uMpe5TPfe9763ywn+DW5wg+6P/uiPuutc5zqrsvlNtyMh8J3udKfut3/7t7vHP/7x3W/+5m92//zP/9z/9l7/+tff5xaSWQFGGvz2t7+9u8c97tH/Xp922mndz//8zzfdDpURWDWBL3/5y90973nP7pxzzule8pKXdP/5n//ZX+C5293u5ja6VevsObfHOdOccN5GYAQCAowRdMJONCH3ed797nfvvve97/X3Uf/N3/xNP4C5+c1vvt/Hl5PlX/qlX+r+8i//srvkJS/Zl/n3f//3/gT8W9/6VvfSl760vzfba3kEHIyXp692q6Xf+c53+vu8n/nMZ3a/+qu/2v3hH/5hl1sXJm8h+cY3vtFf6U94cYlLXKL/rbj61a/ePetZz+oe8pCH9APyBKKTr9e97nXdve99735gkL///u//fl/ftMH5tNtWyoyFYfmEKY985CO7v//7v9/4nAc+8IH97JHNPjdhbd6XV2Y95PfvsMMO229w8pa3vKVv8wUveMGNYCHv+dKXvtT9wR/8QV9HZq1Nvq597Wv3f9tsXYp3vOMdffCQ2W4Pe9jDerv3vOc9G+8broGxWYAxebU44Udm0aTtmU2XWXIpk/v2E0jd73736+54xzv2AdXw9clPfrLv0ze96U3973nanv0ggfXlL3/5vmipK2t1zHoNt72Uz60tD3rQg7oTTzyxe/Ob39y/dbNZe9nHEvA8//nP35jll6As4XjW/Jic5Vf2jVltGvZ3KfORj3yk30+yX6adV7jCFfpZRSeccEJ34IEHbnzUVmuRpOChhx66z/6Rf6vZhuyzZ5555n6fkc8p2zbchmnfhZRNvz/xiU/s/2/aeg3b3ebNfmNSxxlnnNE9/elP79dsyX6UCxlPeMITupwXDF/le5J96uMf/3j39a9/vXf+9V//9X6fL/tVec9W+9e079V26ih9mO0vAeGwnZPG2cbMbEr5V77yld2nP/3pPrzILKfyu7Fbv8M+dzkEnDMtRz9pJYFpAgKMFdkvysAiC8bd5CY32WeQMXmimNtGMlD5nd/5nf7ke/jK7IsnPelJUwcOK0K1spvhYLyyXbvtDcuAMYPMn/u5n+te+MIX9v/Na1qYMBwolVsX/uVf/qW/SplQ82Uve1l3qUtdaqPulM+Jf2YIlHB01iBsVp2T5TNAfMADHtBlevctbnGL/ncrg9ydCjDK5+cK7HCAmsFQQoAMbDJb7YY3vOHGbRvf/va3+wH6T//0T28ZYPzHf/xHHyTk9pHb3va2fXiQIKYsEjhvgJGZMglXMogts+Sy4Oe5557bvfOd7+wHkflbpsSXVxYpzDalTMKoq13tav2AM+HOZS972e4v/uIv+sChDDATVOdY8cM//MMbnzFt20v57BOZ3ZOBYAa7KfuGN7yhf29mn2QwW441CdQTgiW8OOSQQ7Y1yy/7RgK3X/u1X+suetGLbrQp4VIG25MBRhZGTR3//d//3c92+YVf+IUu+2+2N4Pw1J2Bdl6lH2KUgfcw3MjfE6LlVp7hwLh2G3YqwEhYlePyRz/60f0CjJpt3uxH4+Uvf3l/u2hCvXzvEiC87W1v637mZ36m33eve93r9m8vFzUyq6gYZwZnvHLLavaf/M4cfPDBG9WV/eVHf/RH+/2wvGZ9r7ZbR/os5zfbDTBS79Oe9rTu/e9/f78vZN/NLV7ZZxJyeRFwzmQfILC8AgKM5e27/QYWOZE45ZRTulzhuPOd79x97Wtfq5pJkROTDCZyFWnW7I0V4FrZTXAwXtmu3faGZQZAwskMKDPALa9Zi3iWmQu5xeRVr3pVd+lLX7r/DXj961/f/5bc5ja32fiMTMHOYD0zNsrtaYsGGGU2WIKR4Zo9OxVgZCbZQx/60O4LX/jCPgFGriZnkJjgIts5vNWuDMCy4VvNwNiqY7YbYJQA+ipXuUofHCUkSJAU6+FAPPX9wz/8Qz9TLoPzF7/4xX2ZMgMvg8qnPOUp/d/L70EJQm53u9v1sxW++MUv9k9nyK1Ek09jmLbtwyvqRxxxRL9/JRDJK/2Xq9wJQcosnvx72S8my5fBav77vOc9r7vlLW+5QZjBZvbTSfNpsxey8Gn6L7cHzNre1J3bJLPGy1ZX76eFD7XbsBMBRmZQJZT68z//895lOAOjdptn7ZtlX0lAkn0/a14lnMysrYQa+R5m1k8JLGM4eVvpsJ057xheCEmo9xu/8Rv9rVXDmQ7T9q2aOtKftQHGVt9Pf19vAedM693/tn65BQQYy91/fetzle0ud7lLd5GLXGTjqumTn/zkfhCz1WKeZfPPO++8/uphbinJSVOml1vcb7l2Dgfj5eqvnW7tcLCcK6wJG7YKMKbdupBBcQZjCTIyiCtX1TOwzAAivytlYLJIgHHrW9+6v50gIcrkLWs7EWCUKeO5mp/ZBhnslivs+a3LQPGpT31qf7vB8NUywPjmN7/Z/dVf/VX3e7/3e/0V9zLLILMl/viP/7j3npzuPq19JZDJ7IK890d+5Ec2NinhTWa2/O///m//u56wYZ4AIzMdElL88i//8j5e5VhT2p5jSY5HGchOK1/CmnKcKQuWps+z8Ox2Aoxyq9O0RU8z6ybbm1k9pf7aAGOebdiJAOONb3xjd//7378PDnMhIbODSshUu82zfl/yfcs+lXVWMhuz+JeQM/tGQrM4JpwqjyH92Z/92X0+clqwlAIlFM3vx1YBxmc/+9lt15G2TK4xM2zQrPbs9O+sz1sdAedMq9OXtmT9BAQYK9DnuaqWk6fc+vG4xz2u36JyZTNX9GYt5plyk/er5nNyJWw4hXcFiNZiExyM16KbZ25kBsMZ0OUKfgYmOeHfKsAoV0szWyvBRWZvlUA0AWaChVypz5XSXJl961vf2i+Il3UY8po3wMhsj6znkDZmwJTfnOGtbjsRYKRtGfTlynIGgcOp53/913/dz3DIleOUGda9WwHGVntnBmdZU2Ry4eXMmMjslwQcmWFRniqTWybKYL/0Q27ByK0cm73K9tXOwMjtBbnantk6w1f2iThm/ZFcrc9tGvn/s2bGtPJln8vAObfwlP0r+0IGtJPvmRyYlpmC6dPJoK60K/tTFrItHrUBRtmmmm1YNMAobcytFvmuZeZQCTCyMHcCgZpt3mp/G/49YV9mbyXEGJ5HlDKZcZG+yT6Y23QSDpWFgCdv7SnrwiQcHIaoW32vtlNHjPM7FYf8bggwanpZ2UkB50z2CQLLKyDAWN6+61s+7WrT8N9zIjY5FXy4ybm3NSedeeXEIyf5uTKamRvD+1qXnGktmu9gvBbdvOlGlqvhk1emZ91CUq6GZ6BWbkcoYUXW0yi/HSXUyIAqvxflqu1WCy+msRmYJlAZBh5lIzJQy0An6zsMX4sGGGUdgdzf/5jHPKZfG2IYYAyn42d6fG65S6CS11YDrZq9bDgrJoupHnDAAfu8PWFA7G91q1v1T4QZLsqZK/BZMDNrapRX2pgr5//1X//VL9BZAozNvCbbO2+AkfUMEpZPrqlUrriXwXYWHs3g8lrXula/bsJk+cwEyTZlVszk01oyUM8swKHTZIBRTBPS5xaUn/zJn9yvSz7zmc/04UjZ92oDjPJ9qdmG0geb7R+bLeKZ70huh/mTP/mT/lauLEpbTPOZmY1Ts83b2U9L32V2Ul6ZuZL6y/cx60akTZnJkgCjvHL7UmZ85ns2GWDELmFL3pMZQeU163tVU0eZHZaFaZ/73OfuE/aV0GraYq/bsVBm/QScM61fn9vi1REQYCx5X5aZFrkiOnk/82ZTTqdt9vAJBhlY5N7pMlBZcqa1aL6D8Vp086YbWQbuuW0gtyDkPvS8pgUYmRqe6ep5YtHkgpCTTxvJrIvjjjuun82QlfzLqwwuszhertAPX5ODyPytlM9A+Oyzz+5/s/KEjMnHNi8SYGQAls9LIJt2ZzA47d75bHcW9MtV5Wmv7TyFZKs9brtrYEx+Tm4luM997tMvspi1K7JOwS/+4i/2i6rmUdfl6nPLACNBSwmihu2dFWBsZTNcVLXMyrjZzW6239NvZgUYWdByq9eiAcZWnz/chuyzmVk0bZHQaQuRDmcvZdHRzFrJk79inJk20wKMmm3equ35+7/927/1txxllk8eo57/5rcgsz+GC+CmX7LPJZDKrSQJjWbdspEgIUFDvnvZZzcLMGrrKL9Z2e/L4ruZkZNbjz70oQ/1VQkwttPzykTAOZP9gMDyCggwlrfv+paXp4ZsthlXutKV9pn2vVnZDCqOPvroLlfCyvTeJSdam+Y7GK9NV2+6oeUJAymU2xIyiMujErOwXv53BhgZvGegnydapEzWhCgzEPK+XG3NrIT/+7//66f05yrshz/84f6xmMN74ee9hSQDkFxFzZXaXLFP2DqcEr5IgJHtTDCTp7FknYvNrr7n6Qu55SLbmBkQmWWQR1Fv9ykkW+1x8wQYw1skstBlrooPX9OuZE/eMrFZu+adgTHtlpPUU9bfyMy94S0kmVUybcbGtLaVWzayFsjkk7Fm3UKSWRy5yp+FWLd61c7AKO2p2YZ5byFJ6JHZQfnelieATIZC5RaSmm3eymTy7/l+J+jL00Ny7M+5QPoiM4cyUyZP5Rm+pgUYZd9NeFlmdG0WYBTnmjrync3+nlvlsi9nJlLCjKz78trXvlaAUdvxa1zeOdMad75NX3oBAcYSd+FwobE8ei4nHpOvXJHNqvXT7mudtulf/vKXu3ve855dTkAWXYF/iWmXsukOxkvZbbvS6Gm3H0xWlBP/zKrIwGvagr0JR/M0hKc//en9wPTGN77xPot65vMWCTDyKMMyUCuPfc0jQ/OaN8DIFeI8YjTrCCSUyOfNGrwOZ5zFIVduMwjarVtI8nu6ncc3bjXYLrNjLn/5y2/8Rpd/m7aIZwaVCa6ydkHWhMgTROZZxDPrpAzXPyn7U7ltqay7Up5Wk+NRWUNlq508n5EB/ORV++E+Nu32i+0uUr2V6WT4MM82zBtg5HuWwX5mNuV/53d8MsBIuFi+a9vd5lnm+U6nr57whCfsExpOGuUcIPvJ8Baw8pnl1tUEmsN+KbeaTZtJM+17NevWttQzq45Z22URz62+Zf4+KeCcyT5BYHkFBBjL23f9SU9OmjJjIqvLT7vdo5zY5gpHTiYz9TPTpvPM95wI3fzmN99HIFNXs7hdrrJOXkFZYqq1aLqD8Vp087Y3MmtZfOxjH+vvm8//5arq9a53vX6Ke/57oxvdaL81GYYfXm5Py1o4CUtzz/nk78WiAUYG17ndI1eeMxDK79kiAUammCeEyOySsoDgrMFrBvMZMOZWkfzW5VaTvPY6wBjOwMiV5uOPP35jHYmEEJldkoUyh7e45LaSBM9Z0yi3/mX2TFl7Ircd5JaAsqBzBobzBBiZxZO60+dlkefyGNUcVzIb4pBDDukXfM1tCPm/3IqYbSgBWf6WK+fZputc5zp9MJbtzVNLcntM1lyZDNOmDUzjkONU1tHILI/hk1E+//nPb8w6ysyh3IpRG2DUbsMlL3nJft9NcFjW9Rh+l6ZtQ/m3PAY365oUv7xvWoBRu82zfijKOUHxL4/EzT6VtWLStwkmsi5GZmBc7nKX68PAhIx5ff/73+8Xm836LAkLhwFGZlKl36etuzXte1VmYNTUIcDY9iFAwS0EnDPZRQgsr4AAY0n7Lid9mSJ92mmn9VdThvelDzepPPM9U09Lufw3J5CTC2GlbE50czLvPtLl2zEcjJevz1q1eLMrnbPaUH47sh5DFkuc9jSjRQOM1F3W7chV5jKIKzMwNltb4/DDD++ffHHsscf2979noJpBV26JyW9ceZTotMHre97znn66fGac5TaNbF957XWAkXZktkYG/xkgZlZJnjiShTsTPN/0pjftH4madRWGg+UyAD333HP3e0/WJ8laBwmt5r2FJMFAbq/JU1Jy20ZuM0p7MuDNgHb4xInsO+mXzKrILYy5PSe3QeQ2hfT3gQce2L8nszRyvEm4lv5M2clXWT8if8/tQRlk55VBdsL4LAKZQC4hQOpNqJJtzPovCXMSmKTON7zhDf3tENNujZwWPmx3G8p2zxtgZMHMDPwTQJXXtABju9ucGRaTT7IZmibAyrlDQokETtmfcj7xt3/7t/3+llAvoWJcYx2vUi4XSbK2TL43edRrHgGc/ybMSH++/vWv7983bUZoZkXl1qy8jjjiiP6pJ5khtd06pq2/MtwuMzBaHU1Wpx7nTKvTl7Zk/QQEGEva52WmRE4AtpqmWw7suSqXFd5zIpETvzzrvZxchiGLeGV1/lmP81tSqrVptoPx2nR19YbOE2Ckkq0GBTsRYORq9wknnNCHpiU43c4THdK+I488sp+9cdZZZ/UBRl6TV8AnA4wMdDOTICFBBmtl2v6YAoyYnHHGGf3tO5n5kFfW58hvcwbMccptgRmEDteM+OQnP9mvZ5JZF2V9gDyJJYF1CQfmDTCyBkbWC8nMlRwrEkjkVoF8dhahnHxloJwr8Qko0j8ZHOfpFQkicltC1i3YzlNshp87eTtDZpzkM3KbZLYrIVgWtM6+EKcEPQmq4pH6MtC+7W1vu19bZ4UP29mG8mHzBhhlHx6uQTMrwEhdW23ztNvBZvVNvjs5l0iIkv0r2xC38jScaetNJLBIPyTMyOzPrI2R/TRBRNlXt/qBGi5+ut06tpoRutVv1VZt8vf1E3DOtH59botXR0CAsaR9WQ7WCSLyvzd7lbAjZco9zDkxy5WpXJXLyWU5Qc6CcQk6ytXLJeVZy2Y7GK9lt+/qRmdtggSk09Y+2NWKt/jwEkqk2OTTl/ayXatY92aBx6Lbm2NXbiOZdtvF8LNLG2Y9CWXRdnj/YgI1/bPdPl+sRd5NYGsB50xbGylBYKwCAoyx9ox2EagUcDCuBFN8U4HyVIIMGmetsbNXhAKMdvICjHbWy1qTAGNZe2692+2cab3739Yvt4AAY7n7T+sJbAg4GNsZFhXIkyZyb/pHP/rRfuHOi1/84huPdlz0s3fy/QKMndTc/LMEGO2sl7UmAcay9tx6t9s503r3v61fbgEBxnL3n9YTEGDYB3ZUILelZVp/HtM5a82AHa3Qh41aYDcDjFFvuMYRILDSAgKMle5eG7fiAgKMFe9gm7c+Ag7G69PXtpQAAQIECBCYX8A50/x23klgrwUEGHvdA+onsEMCDsY7BOljCBAgQIAAgZUWcM600t1r41ZcQICx4h1s89ZHwMF4ffralhIgQIAAAQLzCzhnmt/OOwnstYAAY697QP0EdkjAwXiHIH0MAQIECBAgsNICzplWuntt3IoLCDBWvINt3voIOBivT1/bUgIECBAgQGB+AedM89t5J4G9FhBg7HUPqJ/ADgk4GO8QpI8hQIAAAQIEVlrAOdNKd6+NW3EBAcaKd7DNWx8BB+P16WtbSoAAAQIECMwv4JxpfjvvJLDXAgKMve4B9RPYIQEH4x2C9DEECBAgQIDASgs4Z1rp7rVxKy4gwFjxDrZ56yPgYLw+fW1LCRAgQIAAgfkFnDPNb+edBPZaQICx1z2gfgI7JOBgvEOQPoYAAQIECBBYaQHnTCvdvTZuxQUEGCvewTZvfQQcjNenr20pAQIECBAgML+Ac6b57byTwF4LCDD2ugfUT2CHBByMdwjSxxAgQIAAAQIrLeCcaaW718atuIAAY8U72Oatj4CD8fr0tS0lQIAAAQIE5hdwzjS/nXcS2GsBAcZe94D6CeyQgIPxDkH6GAIECBAgQGClBZwzrXT32rgVFxBgrHgH27z1EXAwXp++tqUECBAgQIDAl2XQHQAAA69JREFU/ALOmea3804Cey0gwNjrHlA/gR0ScDDeIUgfQ4AAAQIECKy0gHOmle5eG7fiAgKMFe9gm7c+Ag7G69PXtpQAAQIECBCYX8A50/x23klgrwUEGHvdA+onsEMCDsY7BOljCBAgQIAAgZUWcM600t1r41ZcQICx4h1s89ZHwMF4ffralhIgQIAAAQLzCzhnmt/OOwnstYAAY697QP0EdkjAwXiHIH0MAQIECBAgsNICzplWuntHv3E/GICPvp0jb+AFLtB13flp5Pnn9//xIkBgyQQcjJeswzSXAAECBAgQ2BMB50x7wq7SHwjY/xbbFczAWMzPuwmMRsCP4Wi6QkMIECBAgACBEQs4Zxpx56xB0+x/i3WyAGMxP+8mMBoBP4aj6QoNIUCAAAECBEYs4JxpxJ2zBk2z/y3WyQKMxfy8m8BoBPwYjqYrNIQAAQIECBAYsYBzphF3zho0zf63WCcLMBbz824CoxHwYziartAQAgQIECBAYMQCzplG3Dlr0DT732KdLMBYzM+7CYxGwI/haLpCQwgQIECAAIERCzhnGnHnrEHT7H+LdbIAYzE/7yYwGgE/hqPpCg0hQIAAAQIERizgnGnEnbMGTbP/LdbJAozF/LybwGgE/BiOpis0hAABAgQIEBixgHOmEXfOGjTN/rdYJwswFvPzbgKjEfBjOJqu0BACBAgQIEBgxALOmUbcOWvQNPvfYp0swFjMz7sJjEbAj+FoukJDCBAgQIAAgRELOGcaceesQdPsf4t1sgBjMT/vJjAaAT+Go+kKDSFAgAABAgRGLOCcacSdswZNs/8t1skCjMX8vJvAaAT8GI6mKzSEAAECBAgQGLGAc6YRd84aNM3+t1gnCzAW8/NuAqMR8GM4mq7QEAIECBAgQGDEAs6ZRtw5a9A0+99inSzAWMzPuwmMRsCP4Wi6QkMIECBAgACBEQs4Zxpx56xB0+x/i3WyAGMxP+8mMBoBP4aj6QoNIUCAAAECBEYs4JxpxJ2zBk2z/y3WyQKMxfy8m8BoBPwYjqYrNIQAAQIECBAYsYBzphF3zho0zf63WCcLMBbz824CoxHwYziartAQAgQIECBAYMQCzplG3Dlr0DT732KdLMBYzM+7CYxGwI/haLpCQwgQIECAAIERCzhnGnHnrEHT7H+LdbIAYzE/7yYwGgE/hqPpCg0hQIAAAQIERizgnGnEnbMGTbP/LdbJ+wUYi32cdxMgQIAAAQIECBAgQIAAAQIEdk3gAv8PN9HyJu/fuigAAAAASUVORK5CYII=;" vertex="1" parent="1">
          <mxGeometry x="360" y="450" width="975.4" height="730" as="geometry" />
        </mxCell>
        <mxCell id="8sX2BqZw8XOpyFKnuvs1-1" value="&lt;font style=&quot;font-size: 14px;&quot;&gt;&lt;br&gt;Добавление задач для поваров и горничных&lt;/font&gt;" style="html=1;align=center;verticalAlign=top;rounded=1;absoluteArcSize=1;arcSize=10;dashed=0;whiteSpace=wrap;" vertex="1" parent="1">
          <mxGeometry x="410.11" y="770" width="180" height="80" as="geometry" />
        </mxCell>
        <mxCell id="8sX2BqZw8XOpyFKnuvs1-2" value="&lt;br&gt;&lt;font style=&quot;font-size: 14px;&quot;&gt;Распределение задач между поварами и горничными&lt;/font&gt;" style="html=1;align=center;verticalAlign=top;rounded=1;absoluteArcSize=1;arcSize=10;dashed=0;whiteSpace=wrap;" vertex="1" parent="1">
          <mxGeometry x="740.11" y="770" width="200" height="80" as="geometry" />
        </mxCell>
        <mxCell id="8sX2BqZw8XOpyFKnuvs1-3" value="&lt;font style=&quot;font-size: 14px;&quot;&gt;&lt;br&gt;Отметка выполненных задач&lt;/font&gt;" style="html=1;align=center;verticalAlign=top;rounded=1;absoluteArcSize=1;arcSize=10;dashed=0;whiteSpace=wrap;" vertex="1" parent="1">
          <mxGeometry x="1065.1100000000001" y="770" width="180" height="80" as="geometry" />
        </mxCell>
        <mxCell id="8sX2BqZw8XOpyFKnuvs1-4" value="" style="endArrow=classic;html=1;rounded=0;entryX=0;entryY=0.5;entryDx=0;entryDy=0;" edge="1" parent="1" target="8sX2BqZw8XOpyFKnuvs1-1">
          <mxGeometry width="50" height="50" relative="1" as="geometry">
            <mxPoint x="370.11" y="730" as="sourcePoint" />
            <mxPoint x="610.11" y="810" as="targetPoint" />
            <Array as="points">
              <mxPoint x="370.11" y="810" />
            </Array>
          </mxGeometry>
        </mxCell>
        <mxCell id="8sX2BqZw8XOpyFKnuvs1-5" value="" style="endArrow=classic;html=1;rounded=0;entryX=0;entryY=0.25;entryDx=0;entryDy=0;" edge="1" parent="1" target="8sX2BqZw8XOpyFKnuvs1-2">
          <mxGeometry width="50" height="50" relative="1" as="geometry">
            <mxPoint x="370.11" y="760" as="sourcePoint" />
            <mxPoint x="610.11" y="810" as="targetPoint" />
            <Array as="points">
              <mxPoint x="690.11" y="760" />
              <mxPoint x="690.11" y="790" />
            </Array>
          </mxGeometry>
        </mxCell>
        <mxCell id="8sX2BqZw8XOpyFKnuvs1-6" value="&lt;font style=&quot;font-size: 10px;&quot;&gt;Идентификатор администратора&lt;/font&gt;" style="text;html=1;strokeColor=none;fillColor=none;align=center;verticalAlign=middle;whiteSpace=wrap;rounded=0;rotation=0;" vertex="1" parent="1">
          <mxGeometry x="460.11" y="750" width="170" height="10" as="geometry" />
        </mxCell>
        <mxCell id="8sX2BqZw8XOpyFKnuvs1-7" value="" style="endArrow=classic;html=1;rounded=0;exitX=1;exitY=0.5;exitDx=0;exitDy=0;entryX=0;entryY=0.5;entryDx=0;entryDy=0;" edge="1" parent="1" source="8sX2BqZw8XOpyFKnuvs1-1" target="8sX2BqZw8XOpyFKnuvs1-2">
          <mxGeometry width="50" height="50" relative="1" as="geometry">
            <mxPoint x="730.11" y="770" as="sourcePoint" />
            <mxPoint x="780.11" y="720" as="targetPoint" />
          </mxGeometry>
        </mxCell>
        <mxCell id="8sX2BqZw8XOpyFKnuvs1-8" value="" style="endArrow=classic;html=1;rounded=0;exitX=1;exitY=0.5;exitDx=0;exitDy=0;entryX=0;entryY=0.75;entryDx=0;entryDy=0;" edge="1" parent="1" target="8sX2BqZw8XOpyFKnuvs1-2">
          <mxGeometry width="50" height="50" relative="1" as="geometry">
            <mxPoint x="590.11" y="830" as="sourcePoint" />
            <mxPoint x="720.11" y="830" as="targetPoint" />
          </mxGeometry>
        </mxCell>
        <mxCell id="8sX2BqZw8XOpyFKnuvs1-9" value="&lt;font style=&quot;font-size: 10px;&quot;&gt;Список задач поваров&lt;/font&gt;" style="text;html=1;strokeColor=none;fillColor=none;align=center;verticalAlign=middle;whiteSpace=wrap;rounded=0;rotation=0;" vertex="1" parent="1">
          <mxGeometry x="570.11" y="800" width="170" height="10" as="geometry" />
        </mxCell>
        <mxCell id="8sX2BqZw8XOpyFKnuvs1-10" value="&lt;font style=&quot;font-size: 10px;&quot;&gt;Список задач горничных&lt;/font&gt;" style="text;html=1;strokeColor=none;fillColor=none;align=center;verticalAlign=middle;whiteSpace=wrap;rounded=0;rotation=0;" vertex="1" parent="1">
          <mxGeometry x="580.11" y="820" width="170" height="10" as="geometry" />
        </mxCell>
        <mxCell id="8sX2BqZw8XOpyFKnuvs1-11" value="" style="endArrow=classic;html=1;rounded=0;entryX=0.5;entryY=1;entryDx=0;entryDy=0;" edge="1" parent="1" target="8sX2BqZw8XOpyFKnuvs1-1">
          <mxGeometry width="50" height="50" relative="1" as="geometry">
            <mxPoint x="690.11" y="1010" as="sourcePoint" />
            <mxPoint x="630.11" y="970" as="targetPoint" />
            <Array as="points">
              <mxPoint x="690.11" y="920" />
              <mxPoint x="500.11" y="920" />
            </Array>
          </mxGeometry>
        </mxCell>
        <mxCell id="8sX2BqZw8XOpyFKnuvs1-12" value="" style="endArrow=classic;html=1;rounded=0;entryX=0.25;entryY=1;entryDx=0;entryDy=0;" edge="1" parent="1" target="8sX2BqZw8XOpyFKnuvs1-2">
          <mxGeometry width="50" height="50" relative="1" as="geometry">
            <mxPoint x="690.11" y="920" as="sourcePoint" />
            <mxPoint x="890.11" y="740" as="targetPoint" />
            <Array as="points">
              <mxPoint x="790.11" y="920" />
            </Array>
          </mxGeometry>
        </mxCell>
        <mxCell id="8sX2BqZw8XOpyFKnuvs1-13" value="&lt;font style=&quot;font-size: 10px;&quot;&gt;Администратор&lt;/font&gt;" style="text;html=1;strokeColor=none;fillColor=none;align=center;verticalAlign=middle;whiteSpace=wrap;rounded=0;rotation=-90;" vertex="1" parent="1">
          <mxGeometry x="650.11" y="960" width="60" height="10" as="geometry" />
        </mxCell>
        <mxCell id="8sX2BqZw8XOpyFKnuvs1-15" value="" style="endArrow=classic;html=1;rounded=0;exitX=1;exitY=0.25;exitDx=0;exitDy=0;entryX=0;entryY=0.25;entryDx=0;entryDy=0;" edge="1" parent="1" source="8sX2BqZw8XOpyFKnuvs1-2" target="8sX2BqZw8XOpyFKnuvs1-3">
          <mxGeometry width="50" height="50" relative="1" as="geometry">
            <mxPoint x="840.11" y="830" as="sourcePoint" />
            <mxPoint x="890.11" y="780" as="targetPoint" />
          </mxGeometry>
        </mxCell>
        <mxCell id="8sX2BqZw8XOpyFKnuvs1-16" value="" style="endArrow=classic;html=1;rounded=0;exitX=1;exitY=0.25;exitDx=0;exitDy=0;entryX=0;entryY=0.25;entryDx=0;entryDy=0;" edge="1" parent="1">
          <mxGeometry width="50" height="50" relative="1" as="geometry">
            <mxPoint x="940.11" y="820" as="sourcePoint" />
            <mxPoint x="1065.1100000000001" y="820" as="targetPoint" />
          </mxGeometry>
        </mxCell>
        <mxCell id="8sX2BqZw8XOpyFKnuvs1-17" value="&lt;font style=&quot;font-size: 10px;&quot;&gt;Задачи повара&lt;/font&gt;" style="text;html=1;strokeColor=none;fillColor=none;align=center;verticalAlign=middle;whiteSpace=wrap;rounded=0;rotation=0;" vertex="1" parent="1">
          <mxGeometry x="920.11" y="780" width="170" height="10" as="geometry" />
        </mxCell>
        <mxCell id="8sX2BqZw8XOpyFKnuvs1-19" value="&lt;font style=&quot;font-size: 10px;&quot;&gt;Задачи горничной&lt;/font&gt;" style="text;html=1;strokeColor=none;fillColor=none;align=center;verticalAlign=middle;whiteSpace=wrap;rounded=0;rotation=0;" vertex="1" parent="1">
          <mxGeometry x="920.11" y="810" width="170" height="10" as="geometry" />
        </mxCell>
        <mxCell id="8sX2BqZw8XOpyFKnuvs1-20" value="" style="endArrow=classic;html=1;rounded=0;entryX=0.25;entryY=0;entryDx=0;entryDy=0;" edge="1" parent="1" target="8sX2BqZw8XOpyFKnuvs1-3">
          <mxGeometry width="50" height="50" relative="1" as="geometry">
            <mxPoint x="850.11" y="710" as="sourcePoint" />
            <mxPoint x="890.11" y="780" as="targetPoint" />
            <Array as="points">
              <mxPoint x="850.11" y="750" />
              <mxPoint x="1110.1100000000001" y="750" />
            </Array>
          </mxGeometry>
        </mxCell>
        <mxCell id="8sX2BqZw8XOpyFKnuvs1-21" value="&lt;font style=&quot;font-size: 10px;&quot;&gt;Идентификатор повара&lt;/font&gt;" style="text;html=1;strokeColor=none;fillColor=none;align=center;verticalAlign=middle;whiteSpace=wrap;rounded=0;rotation=0;" vertex="1" parent="1">
          <mxGeometry x="870.11" y="740" width="170" height="10" as="geometry" />
        </mxCell>
        <mxCell id="8sX2BqZw8XOpyFKnuvs1-22" value="" style="endArrow=classic;html=1;rounded=0;entryX=0.75;entryY=0;entryDx=0;entryDy=0;" edge="1" parent="1" target="8sX2BqZw8XOpyFKnuvs1-3">
          <mxGeometry width="50" height="50" relative="1" as="geometry">
            <mxPoint x="1050.1100000000001" y="710" as="sourcePoint" />
            <mxPoint x="890.11" y="780" as="targetPoint" />
            <Array as="points">
              <mxPoint x="1050.1100000000001" y="740" />
              <mxPoint x="1200.1100000000001" y="740" />
            </Array>
          </mxGeometry>
        </mxCell>
        <mxCell id="8sX2BqZw8XOpyFKnuvs1-23" value="&lt;font style=&quot;font-size: 10px;&quot;&gt;Идентификатор горнчиной&lt;/font&gt;" style="text;html=1;strokeColor=none;fillColor=none;align=center;verticalAlign=middle;whiteSpace=wrap;rounded=0;rotation=0;" vertex="1" parent="1">
          <mxGeometry x="1040.1100000000001" y="730" width="170" height="10" as="geometry" />
        </mxCell>
        <mxCell id="8sX2BqZw8XOpyFKnuvs1-24" value="" style="endArrow=classic;html=1;rounded=0;entryX=0.25;entryY=1;entryDx=0;entryDy=0;" edge="1" parent="1" target="8sX2BqZw8XOpyFKnuvs1-3">
          <mxGeometry width="50" height="50" relative="1" as="geometry">
            <mxPoint x="950.11" y="890" as="sourcePoint" />
            <mxPoint x="1000.11" y="840" as="targetPoint" />
            <Array as="points">
              <mxPoint x="1110.1100000000001" y="890" />
            </Array>
          </mxGeometry>
        </mxCell>
        <mxCell id="8sX2BqZw8XOpyFKnuvs1-25" value="" style="endArrow=classic;html=1;rounded=0;entryX=0.75;entryY=1;entryDx=0;entryDy=0;" edge="1" parent="1" target="8sX2BqZw8XOpyFKnuvs1-2">
          <mxGeometry width="50" height="50" relative="1" as="geometry">
            <mxPoint x="890.11" y="890" as="sourcePoint" />
            <mxPoint x="910.11" y="840" as="targetPoint" />
          </mxGeometry>
        </mxCell>
        <mxCell id="8sX2BqZw8XOpyFKnuvs1-26" value="" style="endArrow=classic;html=1;rounded=0;entryX=0.75;entryY=1;entryDx=0;entryDy=0;" edge="1" parent="1" target="8sX2BqZw8XOpyFKnuvs1-1">
          <mxGeometry width="50" height="50" relative="1" as="geometry">
            <mxPoint x="950.11" y="1010" as="sourcePoint" />
            <mxPoint x="890.11" y="780" as="targetPoint" />
            <Array as="points">
              <mxPoint x="950.11" y="890" />
              <mxPoint x="545.11" y="890" />
            </Array>
          </mxGeometry>
        </mxCell>
        <mxCell id="8sX2BqZw8XOpyFKnuvs1-27" value="&lt;font style=&quot;font-size: 10px;&quot;&gt;Система&lt;/font&gt;" style="text;html=1;strokeColor=none;fillColor=none;align=center;verticalAlign=middle;whiteSpace=wrap;rounded=0;rotation=-90;" vertex="1" parent="1">
          <mxGeometry x="910.11" y="950" width="60" height="10" as="geometry" />
        </mxCell>
        <mxCell id="8sX2BqZw8XOpyFKnuvs1-30" value="" style="endArrow=classic;html=1;rounded=0;entryX=0.75;entryY=1;entryDx=0;entryDy=0;" edge="1" parent="1" target="8sX2BqZw8XOpyFKnuvs1-3">
          <mxGeometry width="50" height="50" relative="1" as="geometry">
            <mxPoint x="1200.1100000000001" y="950" as="sourcePoint" />
            <mxPoint x="880.11" y="770" as="targetPoint" />
          </mxGeometry>
        </mxCell>
        <mxCell id="8sX2BqZw8XOpyFKnuvs1-31" value="" style="endArrow=classic;html=1;rounded=0;entryX=0.5;entryY=1;entryDx=0;entryDy=0;" edge="1" parent="1" target="8sX2BqZw8XOpyFKnuvs1-3">
          <mxGeometry width="50" height="50" relative="1" as="geometry">
            <mxPoint x="1155.1100000000001" y="950" as="sourcePoint" />
            <mxPoint x="880.11" y="770" as="targetPoint" />
          </mxGeometry>
        </mxCell>
        <mxCell id="8sX2BqZw8XOpyFKnuvs1-32" value="&lt;font style=&quot;font-size: 10px;&quot;&gt;Горничная&lt;/font&gt;" style="text;html=1;strokeColor=none;fillColor=none;align=center;verticalAlign=middle;whiteSpace=wrap;rounded=0;rotation=-90;" vertex="1" parent="1">
          <mxGeometry x="1160.1100000000001" y="890" width="60" height="10" as="geometry" />
        </mxCell>
        <mxCell id="8sX2BqZw8XOpyFKnuvs1-33" value="&lt;font style=&quot;font-size: 10px;&quot;&gt;Повар&lt;/font&gt;" style="text;html=1;strokeColor=none;fillColor=none;align=center;verticalAlign=middle;whiteSpace=wrap;rounded=0;rotation=-90;" vertex="1" parent="1">
          <mxGeometry x="1120.1100000000001" y="890" width="60" height="10" as="geometry" />
        </mxCell>
        <mxCell id="8sX2BqZw8XOpyFKnuvs1-34" value="" style="endArrow=classic;html=1;rounded=0;exitX=1;exitY=0.5;exitDx=0;exitDy=0;" edge="1" parent="1" source="8sX2BqZw8XOpyFKnuvs1-3">
          <mxGeometry width="50" height="50" relative="1" as="geometry">
            <mxPoint x="1100.1100000000001" y="930" as="sourcePoint" />
            <mxPoint x="1330.1100000000001" y="810" as="targetPoint" />
          </mxGeometry>
        </mxCell>
        <mxCell id="8sX2BqZw8XOpyFKnuvs1-35" value="&lt;font style=&quot;font-size: 10px;&quot;&gt;Отчеты&lt;/font&gt;" style="text;html=1;strokeColor=none;fillColor=none;align=center;verticalAlign=middle;whiteSpace=wrap;rounded=0;rotation=0;" vertex="1" parent="1">
          <mxGeometry x="1200.1100000000001" y="800" width="170" height="10" as="geometry" />
        </mxCell>
        <mxCell id="8sX2BqZw8XOpyFKnuvs1-37" value="31" style="text;html=1;strokeColor=none;fillColor=none;align=center;verticalAlign=middle;whiteSpace=wrap;rounded=0;" vertex="1" parent="1">
          <mxGeometry x="575" y="830" width="10" height="20" as="geometry" />
        </mxCell>
        <mxCell id="8sX2BqZw8XOpyFKnuvs1-38" value="33" style="text;html=1;strokeColor=none;fillColor=none;align=center;verticalAlign=middle;whiteSpace=wrap;rounded=0;" vertex="1" parent="1">
          <mxGeometry x="1230" y="830" width="10" height="20" as="geometry" />
        </mxCell>
        <mxCell id="8sX2BqZw8XOpyFKnuvs1-39" value="32" style="text;html=1;strokeColor=none;fillColor=none;align=center;verticalAlign=middle;whiteSpace=wrap;rounded=0;" vertex="1" parent="1">
          <mxGeometry x="920.11" y="830" width="10" height="20" as="geometry" />
        </mxCell>
      </root>
    </mxGraphModel>
  </diagram>
  <diagram id="30CSTh-y9SVbLgZfz-_A" name="Страница — 2">
    <mxGraphModel dx="5413" dy="2800" grid="1" gridSize="10" guides="1" tooltips="1" connect="1" arrows="1" fold="1" page="1" pageScale="1" pageWidth="3300" pageHeight="2339" math="0" shadow="0">
      <root>
        <mxCell id="0" />
        <mxCell id="1" parent="0" />
      </root>
    </mxGraphModel>
  </diagram>
</mxfile>
